<?xml version="1.0" encoding="utf-8"?>
<!-- Generator: Adobe Illustrator 19.1.0, SVG Export Plug-In . SVG Version: 6.00 Build 0)  -->
<svg version="1.1" id="Layer_1" xmlns="http://www.w3.org/2000/svg" xmlns:xlink="http://www.w3.org/1999/xlink" x="0px" y="0px"
	 viewBox="0 0 200 80" style="enable-background:new 0 0 200 80;" xml:space="preserve">
<style type="text/css">
	.st0{fill:#FFFFFF;}
</style>
<g>
	<path d="M197.3,60.6C197.3,60.6,197.3,60.6,197.3,60.6c-0.4-0.6-1.1-0.9-1.9-0.9c-1,0-1.8,0.4-2.4,1.1c-0.3,0.3-0.5,0.7-0.8,1
		c-0.1,0.1-0.2,0.3-0.3,0.4c0,0-0.1,0-0.1,0c-0.9,0-1.8-0.2-2.7-0.6c-1-0.4-1.9-1-2.9-1.7c-0.9-0.7-1.9-1.6-2.7-2.5
		c-0.9-1-1.7-2-2.5-3c-1.2-1.7-2.4-3.5-3.6-5.6c1.2-0.2,2.3-0.4,3.4-0.8c2-0.6,3.7-1.5,5.1-2.5c1.5-1.1,2.6-2.3,3.4-3.7
		c0.8-1.4,1.3-2.9,1.3-4.4c0-1.4-0.2-2.5-0.5-3.5c-0.4-1-0.8-1.8-1.4-2.3c-1.3-1.2-2.5-0.9-3-0.7c-0.6,0.3-1.6,1-1.6,2.9
		c0,0.1,0,0.4-0.5,1.1c-0.5,0.7-1.1,1.5-1.8,2.2c-0.8,0.8-1.7,1.6-2.6,2.4c-1,0.8-1.9,1.5-2.8,2.1c-0.1,0.1-0.2,0.1-0.2,0.2
		c0.4-0.6,0.7-1.2,1.1-1.8c1.3-2.1,2.6-4.1,3.7-5.9c1.1-1.9,2.1-3.5,2.8-5c0.9-1.7,1.3-3,1.3-4c0-1.4-0.3-2.6-0.9-3.7
		c-0.6-1-1.2-1.8-2-2.4c-0.9-0.7-1.7-1-2.5-1.1c-0.8-0.1-1.5,0.1-2.1,0.6c-0.5,0.5-0.8,1.2-0.8,1.9c0,0.3-0.1,1.2-1,3.2
		c-0.8,1.6-1.8,3.5-3,5.5c-1.2,2.1-2.5,4.2-3.9,6.5c-0.4,0.6-0.8,1.2-1.1,1.9c-0.2-0.7-0.5-1.4-0.9-2c-0.5-0.7-1-1.3-1.6-1.8
		c-0.5-0.4-0.8-0.7-1.1-0.9c-1.6-1.2-3-0.5-3.4-0.3c-0.3,0.2-0.6,0.4-0.9,0.6c-0.1,0-0.2,0.1-0.5,0.3c0.2-0.3,0.3-0.5,0.5-0.8
		c0.4-0.8,0.8-1.5,1.1-2.3c0.4-0.8,0.6-1.5,0.9-2.2c0.2-0.8,0.4-1.6,0.4-2.2c0-1.6-0.6-2.9-1.7-3.8c-2-1.7-4.7-1.7-7.4,0
		c-1.2,0.8-2.4,1.8-3.4,3.1c-1,1.3-1.9,2.8-2.6,4.6c-0.7,1.6-1,3.4-1.1,5.4c-0.4-0.4-0.9-0.8-1.3-1.2c-1.3-1-2.9-1.5-4.7-1.5
		c-1.1,0-2.4,0.3-3.7,0.9c-1.2,0.5-2.4,1.3-3.6,2.2c-0.4,0.4-0.9,0.7-1.3,1.1c0.6-1.6,1.1-3.1,1.6-4.7c0.8-2.8,1.2-5.5,1.2-7.9
		c0-3.2-0.7-6-2.1-8.3c-1.3-2.2-2.9-4.1-4.7-5.5c-1.8-1.4-3.6-2.5-5.4-3.2c-1.9-0.7-3.3-1.1-4.3-1.1c-1.1,0-2,0.2-2.8,0.6
		c-0.9,0.4-1.5,1-1.9,1.7c-0.5,0.9-0.5,1.9,0,2.7c0.4,0.6,1.1,1.4,2.8,1.4c0.6,0,1.2,0,1.6-0.1c0.5-0.1,1-0.2,1.4-0.3c0,0,0,0,0.1,0
		c0.6,0.3,1.2,0.6,1.8,1.1c0.6,0.5,1.2,1.3,1.8,2.4c0.5,1,0.8,2.4,0.8,4.2c0,1.3-0.2,3.1-0.6,5.4c-0.4,2.3-1,4.9-1.7,7.7
		c-0.7,2.7-1.5,5.6-2.5,8.4c-1,2.8-2,5.4-3.2,7.6c-1.1,2.2-2.3,4-3.5,5.3c-0.6,0.7-1.6,1.6-2.6,1.6c-0.2,0-0.2,0-0.2,0
		c0,0,0,0-0.1-0.2c-0.3-0.7-0.5-1.6-0.6-2.5c-0.1-1-0.1-2.1,0-3.3c0.9-0.7,1.8-1.5,2.5-2.3c0.9-0.9,1.7-2,2.5-3.2
		c0.8-1.3,1.4-2.8,1.6-4.3c0.2-1.7-0.1-3-0.9-4c-0.8-0.9-1.9-1.3-3.3-1.3c-1.8,0-3.4,0.7-4.7,2.2c-1,1.2-1.8,2.5-2.5,4
		c-0.6,1.4-1.1,2.8-1.4,4.2c-0.2,0.9-0.4,1.7-0.5,2.2c-0.8,0.9-1.6,1.9-2.5,2.8c-1.1,1.1-2.1,2.2-3,3.1c-0.3,0.3-0.6,0.6-0.9,0.9
		c0.1-0.1,0.1-0.2,0.2-0.3c0.8-1.4,1.7-3.1,2.8-4.9c1.1-1.9,2.2-3.7,3.3-5.6c1.1-1.9,2-3.7,2.8-5.4c0.9-1.9,1.3-3.5,1.3-4.9
		c0-2-0.5-3.7-1.5-5.2c-0.9-1.3-1.9-2.3-3.1-3c-1.2-0.7-2.3-1.1-3.3-1.2c-1.1-0.1-1.9,0.1-2.5,0.7c-0.5,0.5-0.8,1.1-0.8,1.8
		c0,0.7-0.1,1.4-0.2,2.2c-0.6-0.3-1.4-0.7-2.1-0.9c-0.8-0.3-1.8-0.5-2.8-0.6c0,0,0,0,0-0.1c0.4-1,0.6-1.8,0.6-2.5c0-1.6-0.3-2.9-1-4
		c-0.6-1-1.3-1.9-2.1-2.5c-0.9-0.7-1.8-1-2.6-1.1c-1.1-0.1-1.7,0.3-2.1,0.7c-0.5,0.5-0.8,1.1-0.8,1.8c0,0.2-0.1,0.9-1,3
		c-0.6,1.4-1.4,3.1-2.4,4.9c-0.6,0.1-1.2,0.1-2,0.1c-0.7,0-1.4,0.1-2.1,0.1c0.1-0.3,0.2-0.6,0.3-1c0.2-1.2,0-2.5-0.6-3.8
		c-0.5-1.2-1.4-2.2-2.4-3.2c-1.1-1.1-2.4-1.9-3.8-2.5c-1.4-0.6-3-1-4.5-1.2c-2-0.2-3.9-0.2-5.6,0.1c-1.7,0.3-3.1,0.7-4.4,1.1
		c-1.3,0.5-2.3,0.9-3.2,1.4c-0.1,0.1-0.3,0.2-0.4,0.2c-0.6-0.3-1.3-0.6-2.1-0.9c-1.4-0.6-2.9-1.2-4.6-1.9c-1.7-0.7-3.6-1.3-5.5-2
		c-1.9-0.7-3.9-1.3-5.8-1.9c-2-0.6-3.9-1-5.7-1.4c-1.9-0.4-3.6-0.5-5.2-0.5c-2.8,0-5.4,0.4-7.6,1.2c-2.2,0.8-4.2,2-5.8,3.4
		c-1.6,1.4-2.8,3.1-3.7,4.9c-0.9,1.8-1.3,3.7-1.5,5.5c-0.1,2,0.3,3.9,1.2,5.8C3.1,32,4.4,33.6,6.1,35c1.5,1.2,3.1,2.1,4.8,2.8
		c1.8,0.7,3.6,1,5.4,1c2.2,0,4.2-0.3,6-0.9c1.8-0.6,3.5-1.4,4.8-2.4c1.4-1,2.5-2.2,3.4-3.6c0.9-1.4,1.4-2.9,1.4-4.4
		c0.1-1.9-0.7-3.5-2.3-4.9c-0.9-0.7-1.9-1.2-3.1-1.6c-2.3-0.8-4.7-0.9-6.7-0.1c-1.3,0.5-2.2,1.5-2.5,2.8L16.7,26h2.5
		c0,0,0.3,0,1.1,0.1c0.3,0.1,0.6,0.2,0.9,0.4c0.1,0.1,0.4,0.3,0.3,1.1l0,0.1c0,0.8-0.3,1.4-1,1.9c-0.8,0.6-1.9,0.9-3.4,0.9
		c-1,0-2.1-0.2-3.3-0.7c-1.3-0.5-2.4-1.1-3.2-1.8c-0.6-0.5-1.2-1.1-1.7-2c-0.4-0.6-0.6-1.4-0.6-2.3c0.1-2,0.9-3.4,2.4-4.5
		c1.7-1.2,4.2-1.8,7.3-1.8c1.4,0,3.1,0.2,4.9,0.6c1.9,0.4,3.8,0.9,5.8,1.6c2,0.7,3.9,1.4,5.8,2.1c1.9,0.8,3.7,1.5,5.2,2.2
		c1.4,0.6,2.5,1.1,3.5,1.6c-0.4,0.7-0.8,1.4-1.2,2.1c-0.4,0.7-0.9,1.5-1.3,2.2c-0.5,0.7-0.9,1.4-1.4,2c-0.3,0.4-0.4,0.6-0.5,0.6
		c-0.1,0.1-0.3,0.3-0.4,0.5c-0.2,0.1-0.4,0.1-0.6,0.2c-0.7,0.2-1.3,0.6-1.9,1c-0.6,0.4-1.1,0.9-1.6,1.4c-0.5,0.6-0.8,1.2-1,1.8
		c-0.3,0.9-0.3,1.8,0.1,2.6c0,0.1,0.1,0.2,0.1,0.3c-0.2,0.3-0.3,0.5-0.4,0.7l-4,6.6c-0.6,1.1-1.1,2.1-1.5,2.9
		c-0.4,0.8-0.7,1.6-1,2.3c-0.3,0.7-0.5,1.4-0.6,2.1c-0.1,0.7-0.1,1.4-0.1,2.1c0.1,1.4,0.4,2.5,0.9,3.5c0.5,1,1.1,1.7,1.7,2.3
		c0.8,0.7,1.5,1.1,2.3,1.1c0.8,0.1,1.5-0.2,2-0.7c0.5-0.5,0.8-1.2,0.7-1.9c0,0,0-0.6,0.8-2.4c0.6-1.4,1.4-3.1,2.5-5
		c1-1.9,2.2-4,3.5-6.2c1.1-1.8,2.2-3.6,3.3-5.4c0.6,0.2,1.1,0.3,1.5,0.4c0.5,0.1,1,0.3,1.4,0.3c0.4,0.1,0.8,0.1,1.2,0.1
		c0.4,0,1,0,1.8,0c0.7,0,1.2,0,1.7-0.1c0.5-0.1,0.9-0.2,1.4-0.3l0.1,0c0.9-0.3,1.6-0.7,2.1-1c-0.3,0.5-0.6,1.1-0.9,1.6
		c-0.8,1.4-1.6,2.8-2.4,4.1c-0.8,1.3-1.5,2.6-2.1,3.8c-0.7,1.4-1.1,2.6-1.2,3.7c-0.1,0.8-0.1,1.6,0.1,2.5c0.1,1,0.4,1.9,0.8,2.7
		c0.5,0.9,1.1,1.7,1.9,2.3c0.9,0.7,2.1,1,3.4,1c1.2,0,2.4-0.5,3.8-1.4c1.1-0.8,2.3-1.7,3.5-2.9c0.3-0.3,0.6-0.6,0.9-0.9
		c0.1,0.9,0.4,1.6,0.8,2.4c0.5,0.8,1.1,1.5,1.9,2c0.9,0.6,2,0.9,3.3,0.9c1.2,0,2.4-0.5,3.8-1.4c1.1-0.8,2.3-1.7,3.5-2.9
		c1.2-1.1,2.4-2.4,3.5-3.7c1.2-1.3,2.2-2.6,3.2-3.7c0.6-0.7,1.2-1.4,1.7-2.1C84,51,83.8,52.1,83.8,53c0,1.5,0.2,2.9,0.6,4
		c0.4,1.2,1,2.2,1.7,3c0.8,0.8,1.6,1.5,2.6,1.9c0.9,0.4,1.9,0.6,2.8,0.6c1.1,0,2.2-0.3,3.5-1c1.1-0.6,2.2-1.4,3.3-2.3
		c1-0.9,2-1.8,3-2.9c0.3,0.9,0.7,1.8,1.2,2.6c0.7,1.1,1.7,2,2.9,2.6c1.2,0.7,2.7,1,4.4,1c1.6,0,3.4-0.7,5.3-2.1
		c1.7-1.2,3.4-2.9,5.1-4.9c1-1.2,2.1-2.6,3.1-4.1c0,0.3,0,0.7,0,1c0,1.6,0.2,2.8,0.7,3.9c0.5,1.1,1.1,1.9,1.9,2.5
		c0.7,0.6,1.6,1,2.4,1.3c0.8,0.2,1.5,0.3,2.1,0.3h1.3l0.2-0.2c1.5-0.3,3.1-0.9,4.5-2c1.4-1,2.8-2.2,4.1-3.5l0.1-0.1
		c0,0,0.1-0.1,0.1-0.1c1.3,0.4,2.9,0.1,4.3-0.8c0.8-0.5,1.6-1.2,2.4-2c0.7-0.7,1.4-1.5,2.1-2.4c0.6-0.8,1.2-1.6,1.7-2.4
		c0.5-0.8,1-1.5,1.3-2.1c0.3-0.5,0.5-0.8,0.6-1c0.2,0,0.3,0,0.5-0.1c-0.6,1.1-1.1,2.3-1.7,3.5c-0.7,1.6-1.3,3.4-1.8,5.2
		c-0.5,1.9-0.8,3.8-0.8,5.6c0,2.6,0.4,4.9,1.3,6.9c0.8,2,2,3.6,3.3,5c1.3,1.3,2.8,2.3,4.5,3c1.6,0.7,3.2,1,4.7,1
		c1.5,0,2.8-0.2,3.8-0.7c1-0.4,1.9-0.9,2.5-1.5c0.8-0.7,1.4-1.5,1.8-2.4l0.3-0.8l-0.3-0.8c-0.2-0.5-0.5-0.9-0.9-1.2l0,0
		c-0.6-0.4-1.2-0.6-1.9-0.4c-0.5,0.1-1.2,0.4-1.7,1.3c0,0-0.2,0.3-0.8,0.7c-0.1,0.1-0.7,0.4-2.1,0.4c-0.5,0-1-0.1-1.7-0.3
		c-0.6-0.2-1.1-0.6-1.6-1.1c-0.5-0.6-1-1.4-1.4-2.5c-0.4-1.1-0.6-2.6-0.6-4.4c0-1.8,0.3-3.7,0.9-5.6c0.4-1.3,0.9-2.6,1.5-3.7
		c-0.5,1.4-0.7,2.6-0.7,3.8c0,1.3,0.3,2.4,0.9,3.3c0.6,0.9,1.2,1.5,2,1.9c1.2,0.6,2.2,0.5,2.8,0.3c1.2-0.4,1.9-1.4,1.9-2.8
		c0,0,0-0.3,0.3-1.1c0.3-0.7,0.6-1.5,1.1-2.4c0.4-0.9,0.9-1.9,1.5-2.8c0.5,1.1,1.2,2.4,1.9,3.7c0.8,1.6,1.8,3.2,2.8,4.9
		c1,1.7,2.2,3.3,3.4,4.8c1.3,1.5,2.6,2.7,4,3.7c1.6,1.1,3.2,1.6,5,1.6c1.9,0,3.6-0.4,5.1-1.2c1.3-0.7,2.4-1.5,3.2-2.4
		c0.9-1,1.5-1.9,1.7-2.9C198,62.1,197.8,61.2,197.3,60.6z M67.5,22.7l0.9,0.4L67.5,22.7C67.5,22.8,67.5,22.8,67.5,22.7z M59.8,21.5
		c0.9-0.2,1.8-0.3,2.9-0.2c0.4,0,0.9,0.1,1.5,0.2c0.6,0.1,1,0.3,1.5,0.5c0.6,0.3,1.1,0.5,1.4,0.7c-0.1,0-0.2,0.1-0.4,0.1
		c-0.5,0.1-1,0.2-1.6,0.3c-1.2,0.1-2.8,0.2-4.1-0.1c-0.7-0.2-1.4-0.4-2.1-0.6c-0.3-0.1-0.6-0.2-0.9-0.3
		C58.4,21.9,59.1,21.7,59.8,21.5z M57,36.3c-0.7-1-1.9-1.4-3.2-1l-0.2,0l-0.3,0.2c-0.1,0-0.2,0-0.4,0c-0.7,0-1.4,0-2-0.1
		c-0.6-0.1-1.2-0.2-1.8-0.3c-0.3-0.1-0.6-0.2-0.8-0.2l0,0c0.4-0.8,0.9-1.5,1.4-2.3c0.5-0.8,0.9-1.6,1.3-2.3c0.1-0.1,0.1-0.2,0.2-0.3
		c1.1,0.5,2.4,0.9,3.8,1.2c1.5,0.4,2.9,0.6,4.4,0.8c0.1,0,0.2,0,0.4,0c0,0.7,0.1,1.3,0.2,1.9c0.2,0.9,0.5,1.6,0.9,2.3
		c0.1,0.2,0.3,0.4,0.4,0.6c-0.1-0.1-0.2-0.1-0.2-0.2c-0.7-0.4-1.5-0.7-2.1-0.7c-0.7,0-1.3,0.2-1.8,0.7L57,36.3z M72.2,35.7
		c-0.9,1.7-1.9,3.3-2.8,4.9c-0.4,0.8-0.8,1.5-1.2,2.2c-0.2,0.2-0.4,0.4-0.5,0.6l-0.1,0.1c-1,1.6-2.2,3.2-3.5,4.8
		c-1.3,1.6-2.7,3.2-3.9,4.5c-0.9,0.9-1.7,1.8-2.5,2.5c0.3-0.5,0.6-1.1,1-1.7c0.7-1.2,1.5-2.3,2.2-3.5c0.7-1.2,1.4-2.3,2-3.3
		c0.7-1.2,1-2.3,1.1-3.2c0.1-1.2,0.1-2.2-0.2-3.2c-0.2-0.9-0.6-1.7-1-2.3c-0.1-0.1-0.2-0.2-0.3-0.3c0.7,0.4,1.3,0.7,2,0.7
		c0.4,0,0.8,0,1.1-0.1c0.5-0.2,0.9-0.5,1.3-0.9c0.2-0.3,0.4-0.6,0.7-1.1c0.2-0.3,0.5-0.8,0.8-1.4c0.3-0.5,0.6-0.9,0.8-1.2
		c0.7,0.1,1.5,0.1,2.3,0.1h1.9L72.2,35.7z M91.4,34.4c-0.7,1.7-1.5,3.4-2.4,5.2c-0.7,1.5-1.4,2.9-2.1,4.3c-0.2-0.5-0.5-0.9-1-1.1
		c-0.7-0.4-1.5-0.5-2.3-0.2c-0.7,0.2-1.3,0.7-1.6,1.3c-1,1.5-2.2,3.1-3.6,4.7c-1.4,1.6-2.7,3.1-4,4.5c-0.5,0.5-1,1-1.5,1.5
		c0.6-1.3,1.4-2.7,2.3-4.2c1-1.8,2.2-3.8,3.4-5.9l3.6-6.2c1-1.7,1.9-3.3,2.8-4.8c0.1,0,0.2,0,0.3,0h1.5c1.1,0,2.1,0.1,3,0.4
		C90.4,33.9,91,34.1,91.4,34.4C91.4,34.3,91.4,34.3,91.4,34.4z M138.1,44.2c-0.7,1-1.1,2.2-1.1,3.6c0,0.5,0,1,0.1,1.4
		c0,0.4,0.1,0.7,0.1,1c-0.7,0.7-1.4,1.3-2.1,1.9c-0.7,0.7-1.5,1.2-2.4,1.8c-0.2,0.1-0.3,0.2-0.4,0.3c0.1-0.4,0.2-0.9,0.4-1.5
		c0.4-1.1,1-2.4,1.8-3.8c0.8-1.3,1.7-2.6,2.7-3.8c0.3-0.4,0.7-0.7,1-1C138.2,44.1,138.1,44.1,138.1,44.2z M146.3,44.3
		c-0.2,0.3-0.5,0.7-0.7,1c-0.2-1.5-0.9-2.4-1.6-2.8c-0.6-0.4-1.4-0.6-2.1-0.6c-0.4,0-0.9,0.1-1.3,0.2c-0.1,0-0.1,0-0.2,0.1
		c0.9-0.6,1.9-0.9,2.8-0.9c1.6,0,2.7-0.3,3.3-0.9c0.3,0.7,0.6,1.2,1,1.7c0,0,0.1,0.1,0.1,0.1C147.2,43,146.8,43.7,146.3,44.3z"/>
	<g>
		<path class="st0" d="M168.6,68.3c-0.3,0.4-0.7,0.9-1.4,1.4c-0.7,0.5-1.8,0.7-3.2,0.7c-0.7,0-1.5-0.2-2.3-0.5
			c-0.9-0.3-1.7-0.8-2.4-1.6c-0.7-0.8-1.4-1.8-1.9-3.2c-0.5-1.3-0.8-3-0.8-5.1c0-2.1,0.3-4.1,1-6.2c0.7-2.1,1.5-4,2.4-5.7
			s1.9-3.3,2.9-4.7c1-1.3,1.7-2.3,2.3-3c0.5-0.6,0.8-1.2,0.6-1.8c-0.1-0.6-0.4-1.2-0.7-1.7c-0.4-0.5-0.8-1-1.3-1.4
			c-0.5-0.4-0.8-0.7-1-0.9c-0.4-0.3-0.8-0.4-1.1-0.2c-0.3,0.2-0.6,0.4-1,0.6c-0.3,0.2-0.8,0.4-1.6,0.9c-0.8,0.4-1.6,0.8-2.5,1.3
			c-1,0.5-2.1,1.1-3.3,1.7c1.2-1.7,2.3-3.4,3.3-5c0.4-0.7,0.8-1.4,1.2-2.1c0.4-0.7,0.8-1.4,1.1-2.1c0.3-0.7,0.6-1.4,0.8-2
			s0.3-1.2,0.3-1.6c0-1-0.3-1.8-1-2.3c-0.6-0.5-1.4-0.8-2.3-0.8c-0.8,0-1.8,0.3-2.8,1c-1,0.6-2,1.5-2.9,2.7c-0.9,1.1-1.7,2.5-2.3,4
			c-0.6,1.6-0.9,3.3-0.9,5.2c0,1.3,0.1,2.4,0.4,3.2c0.3,0.8,0.6,1.4,1,1.8c0.4,0.4,0.8,0.7,1.2,0.8c0,0,0.1,0,0.1,0
			c-0.9,1.4-1.7,2.7-2.5,3.8c-0.8,1.2-1.5,2.1-2.2,3c-0.7,0.8-1.3,1.4-1.9,1.9c-0.6,0.4-1.1,0.6-1.7,0.6c-0.1,0-0.3,0-0.5-0.1
			c-0.2-0.1-0.3-0.2-0.4-0.2c0.8-1,1.4-1.9,1.8-2.6c0.4-0.7,0.6-1.3,0.6-1.8c0-1-0.2-1.6-0.7-2c-0.5-0.3-1-0.4-1.6-0.2
			c-0.6,0.2-1.1,0.6-1.6,1.3c-0.5,0.7-0.7,1.5-0.7,2.4c0,0.4,0,0.8,0,1.2c0,0.4,0.1,0.7,0.1,0.9c0.1,0.3,0.1,0.6,0.2,0.8
			c-1,1.1-2,2-3,2.8c-0.8,0.7-1.7,1.4-2.6,2c-0.9,0.6-1.7,0.9-2.4,0.9c-0.7,0-1.1-0.4-1.1-1.3c0-0.8,0.2-1.9,0.6-3.2
			c0.4-1.3,1.1-2.6,1.9-4.1c0.8-1.5,1.8-2.8,2.9-4.1c1.1-1.3,2.3-2.3,3.6-3.2c1.3-0.8,2.6-1.3,3.9-1.3c1.1,0,1.8-0.1,2.1-0.4
			c0.3-0.3,0.4-0.5,0.3-0.6c-0.6-1-1.4-1.9-2.3-2.7c-1-0.7-2.1-1.1-3.4-1.1c-0.9,0-1.8,0.2-2.9,0.7c-1.1,0.5-2.1,1.1-3.2,2
			c-1.1,0.8-2.1,1.8-3.1,3c-1,1.1-1.9,2.4-2.7,3.7c-0.8,1.3-1.4,2.7-1.9,4.1c-0.5,1.4-0.7,2.9-0.7,4.3c0,1.3,0.2,2.3,0.5,3.1
			c0.4,0.8,0.8,1.4,1.3,1.8c0.5,0.4,1.1,0.7,1.7,0.9c0.6,0.2,1.1,0.2,1.6,0.2h0.5c0,0,0.1,0,0.2,0c0.1,0,0.1,0,0.1,0
			c1.3-0.2,2.7-0.7,4-1.7c1.3-0.9,2.6-2,3.7-3.2c0.1-0.1,0.2-0.2,0.3-0.3c0.1-0.1,0.2-0.2,0.2-0.2c0.1-0.1,0.1-0.2,0.2-0.2
			c0.2-0.2,0.3-0.4,0.5-0.6c0.2,0.2,0.4,0.3,0.7,0.4c0.3,0.1,0.6,0.2,1,0.2c0.7,0,1.4-0.2,2.1-0.6c0.7-0.4,1.4-1,2-1.6
			c0.7-0.7,1.3-1.4,1.9-2.2c0.6-0.8,1.2-1.6,1.6-2.3c0.5-0.7,0.9-1.4,1.2-2c0.3-0.6,0.6-1,0.7-1.3c0.2-0.3,0.3-0.5,0.3-0.7
			c1.2,0,2.3-0.2,3.3-0.5c1.1-0.3,2.1-0.6,2.8-1c-0.6,0.9-1.2,1.9-2,3.2c-0.7,1.3-1.5,2.7-2.1,4.3c-0.7,1.6-1.2,3.2-1.7,4.9
			c-0.5,1.7-0.7,3.4-0.7,5.1c0,2.3,0.4,4.4,1.1,6.1c0.7,1.7,1.7,3.2,2.9,4.3c1.2,1.1,2.4,2,3.8,2.6c1.4,0.6,2.7,0.9,3.9,0.9
			c1.2,0,2.3-0.2,3.1-0.5c0.8-0.3,1.5-0.7,1.9-1.2c0.6-0.5,1-1.1,1.3-1.7c-0.1-0.2-0.2-0.3-0.3-0.4
			C169.1,67.8,168.8,67.9,168.6,68.3z M151.9,37.6c-0.1-0.2-0.2-0.5-0.3-0.8c-0.1-0.3-0.1-0.7-0.1-1.1c0-0.6,0.2-1.3,0.5-2.1
			c0.4-0.8,0.8-1.6,1.3-2.3c0.5-0.7,1.1-1.4,1.6-1.9c0.6-0.5,1-0.8,1.5-0.8c0.4,0,0.6,0.3,0.4,0.8c-0.1,0.5-0.4,1.2-0.8,2.1
			c-0.4,0.9-1,1.9-1.6,3.1s-1.4,2.4-2.1,3.6C152.1,38,152,37.8,151.9,37.6z"/>
		<path class="st0" d="M195.4,61.7c-0.4,0-0.7,0.1-0.9,0.4c-0.2,0.3-0.4,0.6-0.6,0.9c-0.2,0.3-0.5,0.6-0.8,0.9
			c-0.3,0.3-0.7,0.4-1.3,0.4c-1.2,0-2.4-0.2-3.5-0.7c-1.1-0.5-2.2-1.1-3.3-1.9c-1.1-0.8-2-1.7-3-2.7c-0.9-1-1.8-2.1-2.6-3.2
			c-1.8-2.5-3.6-5.3-5.2-8.6c2.2,0,4.2-0.3,5.9-0.9c1.8-0.6,3.3-1.3,4.5-2.2c1.3-0.9,2.2-1.9,2.9-3.1c0.7-1.1,1-2.3,1-3.4
			c0-1.1-0.1-2.1-0.4-2.8c-0.3-0.7-0.6-1.2-0.9-1.6c-0.3-0.3-0.6-0.4-0.9-0.3c-0.3,0.1-0.4,0.5-0.4,1c0,0.6-0.3,1.4-0.8,2.2
			c-0.5,0.8-1.2,1.7-2.1,2.6c-0.8,0.9-1.8,1.7-2.8,2.6c-1,0.8-2,1.6-3,2.2c-1,0.7-1.9,1.2-2.7,1.6c-0.8,0.4-1.4,0.6-1.8,0.6
			c-0.2,0-0.4,0-0.6-0.1c-0.2-0.1-0.4-0.2-0.5-0.3c1.2-2,2.5-4,3.8-6.1c1.3-2.1,2.5-4,3.7-5.9c1.1-1.8,2-3.4,2.7-4.8
			c0.7-1.4,1.1-2.4,1.1-3.1c0-1-0.2-1.9-0.7-2.7c-0.4-0.8-0.9-1.4-1.5-1.8c-0.6-0.4-1.1-0.7-1.5-0.7c-0.4,0-0.7,0.1-0.7,0.5
			c0,1-0.4,2.3-1.2,4c-0.8,1.7-1.8,3.6-3,5.6c-1.2,2.1-2.5,4.3-4,6.5c-1.4,2.3-2.8,4.5-4,6.7c-1.2,2.2-2.2,4.2-3,6.1
			c-0.8,1.9-1.2,3.5-1.2,4.8c0,0.9,0.2,1.7,0.6,2.2c0.4,0.6,0.8,1,1.3,1.2c0.5,0.2,0.9,0.3,1.3,0.2c0.4-0.1,0.6-0.4,0.6-0.9
			c0-0.4,0.1-1,0.4-1.8c0.3-0.8,0.7-1.6,1.1-2.6c0.5-1,1-2,1.6-3.1c0.6-1.1,1.2-2.1,1.8-3.2c0.3,0.6,0.8,1.6,1.3,2.9
			c0.6,1.3,1.3,2.7,2.1,4.2c0.8,1.5,1.7,3.1,2.7,4.8c1,1.6,2.1,3.1,3.2,4.5c1.1,1.4,2.3,2.5,3.6,3.3s2.5,1.3,3.8,1.3
			c1.6,0,3-0.3,4.1-0.9c1.1-0.6,2.1-1.3,2.7-2c0.7-0.7,1.1-1.4,1.2-2C195.9,62,195.8,61.7,195.4,61.7z"/>
		<path class="st0" d="M130.9,31.6c0.8-2.7,1.1-5.1,1.1-7.4c0-2.9-0.6-5.3-1.8-7.3c-1.2-2-2.6-3.7-4.3-5c-1.6-1.3-3.3-2.3-4.9-2.9
			c-1.6-0.6-2.8-0.9-3.6-0.9c-0.8,0-1.4,0.1-1.9,0.4c-0.5,0.2-0.8,0.5-1,0.8c-0.2,0.3-0.2,0.6,0,0.8c0.1,0.2,0.5,0.4,1,0.4
			c0.6,0,1,0,1.3-0.1c0.3,0,0.6-0.1,0.9-0.2c0.2-0.1,0.4-0.2,0.6-0.3c1.2,0.3,2.3,0.9,3.2,1.7c0.8,0.7,1.6,1.7,2.3,3
			c0.7,1.3,1,3,1,5.2c0,1.4-0.2,3.3-0.6,5.8c-0.4,2.4-1,5-1.7,7.8c-0.7,2.8-1.6,5.7-2.6,8.6c-1,2.9-2.1,5.5-3.3,7.9
			c-1.2,2.3-2.5,4.3-3.8,5.7c-1.3,1.5-2.7,2.2-4.1,2.2c-1,0-1.7-0.5-2.1-1.4c-0.4-0.9-0.7-2-0.8-3.1c-0.1-1.3-0.1-2.9,0.1-4.6
			c1.1-0.8,2.1-1.7,3-2.6c0.8-0.8,1.5-1.7,2.2-2.8c0.7-1.1,1.1-2.3,1.3-3.5c0.3-2.1-0.5-3.1-2.3-3.1c-1.2,0-2.3,0.5-3.2,1.5
			c-0.9,1-1.6,2.2-2.2,3.5c-0.6,1.3-1,2.6-1.3,3.8c-0.3,1.2-0.5,2.1-0.6,2.6c-0.9,1.1-1.9,2.2-2.9,3.3C99,52.4,98,53.4,97,54.3
			c-1,0.9-1.9,1.7-2.7,2.3c-0.8,0.6-1.4,0.9-1.7,0.9c-0.8,0-1.2-0.5-1-1.4c0.2-0.9,0.7-2.2,1.5-3.6c0.8-1.5,1.7-3.1,2.8-5
			c1.1-1.9,2.2-3.7,3.2-5.6c1.1-1.8,2-3.6,2.7-5.2c0.7-1.7,1.1-3,1.1-4.1c0-1.6-0.4-3-1.1-4c-0.7-1.1-1.6-1.9-2.5-2.5
			c-0.9-0.6-1.7-0.9-2.5-0.9c-0.7-0.1-1.1,0.1-1.1,0.5c0,1.3-0.2,2.8-0.7,4.4c-0.1,0.4-0.2,0.7-0.3,1.1c-0.3-0.3-0.7-0.7-1.1-1
			c-0.8-0.6-1.7-1-2.8-1.4c-1.1-0.4-2.4-0.5-3.9-0.5h-1.4c0.5-1,1-1.9,1.2-2.7c0.3-0.8,0.4-1.4,0.4-1.8c0-1.2-0.2-2.2-0.7-3
			c-0.5-0.8-1-1.4-1.6-1.9c-0.6-0.4-1.1-0.7-1.6-0.7c-0.5,0-0.7,0.1-0.7,0.5c0,0.8-0.4,2.1-1.1,3.8c-0.7,1.7-1.7,3.7-2.9,6
			c-0.8,0.1-1.9,0.2-3.1,0.3c-1.2,0.1-2.6,0.1-4,0.1c-0.7,0-1.3,0-1.9-0.1c-0.1-0.1-0.2-0.3-0.3-0.4c0.3-0.2,0.5-0.3,0.8-0.5
			c0.8-0.6,1.3-1.4,1.5-2.3c0.1-0.9,0-1.8-0.5-2.7c-0.4-0.9-1.1-1.8-2-2.6c-0.9-0.9-2-1.6-3.2-2.2c-1.2-0.5-2.6-0.9-4-1
			c-1.8-0.2-3.5-0.2-5.1,0.1c-1.6,0.3-2.9,0.6-4.1,1c-1.2,0.4-2.1,0.8-2.8,1.3c-0.7,0.4-1.1,0.7-1.2,0.8c-0.8-0.4-1.8-0.8-3.2-1.4
			c-1.3-0.6-2.9-1.2-4.5-1.8c-1.7-0.7-3.5-1.3-5.4-2c-1.9-0.7-3.8-1.3-5.7-1.8c-1.9-0.5-3.8-1-5.5-1.3c-1.8-0.3-3.4-0.5-4.8-0.5
			c-2.6,0-4.9,0.4-7,1.1c-2,0.7-3.7,1.7-5.1,3c-1.4,1.2-2.5,2.7-3.2,4.2C3.5,21.4,3.1,23,3,24.6c-0.1,1.6,0.2,3.2,1,4.8
			c0.8,1.5,1.9,2.9,3.3,4.1c1.3,1.1,2.7,1.9,4.3,2.4c1.5,0.6,3.1,0.9,4.7,0.9c1.9,0,3.7-0.3,5.4-0.8c1.7-0.6,3.1-1.3,4.3-2.1
			c1.2-0.9,2.1-1.9,2.8-3c0.7-1.1,1.1-2.3,1.1-3.4c0.1-1.2-0.5-2.3-1.6-3.2c-0.7-0.5-1.5-1-2.5-1.3c-1-0.3-2-0.5-3-0.5
			c-0.8,0-1.6,0.1-2.3,0.4c-0.7,0.3-1.2,0.7-1.3,1.4h0c0.3,0,0.8,0.1,1.4,0.2c0.7,0.1,1.3,0.4,1.8,0.8c0.8,0.7,1.1,1.6,1,2.8
			c0,1.5-0.6,2.6-1.8,3.5c-1.1,0.9-2.7,1.3-4.6,1.3c-1.2,0-2.6-0.3-4.1-0.9c-1.5-0.6-2.7-1.3-3.8-2.1c-0.7-0.6-1.4-1.4-2.1-2.4
			c-0.7-1-1-2.2-0.9-3.6c0.2-2.6,1.3-4.6,3.3-6c2-1.4,4.9-2.1,8.5-2.1c1.6,0,3.4,0.2,5.3,0.6c2,0.4,3.9,1,6,1.6c2,0.7,4,1.4,5.9,2.2
			c1.9,0.8,3.7,1.5,5.2,2.2c1.5,0.7,2.8,1.3,3.8,1.7c1,0.5,1.5,0.8,1.6,0.8c-0.3,0.5-0.6,1.1-1,1.7c-0.4,0.7-0.8,1.4-1.2,2.2
			c-0.4,0.8-0.9,1.5-1.4,2.3c-0.5,0.8-1,1.5-1.4,2.1c-0.3,0.4-0.5,0.6-0.6,0.8c-0.2,0.2-0.4,0.5-0.6,0.8l-0.1,0.1l0,0
			c-0.4,0-0.7,0.1-1,0.2c-0.5,0.2-1,0.4-1.5,0.8c-0.5,0.3-0.9,0.7-1.2,1.1c-0.3,0.4-0.5,0.8-0.7,1.2c-0.1,0.4-0.1,0.8,0,1.2
			c0.1,0.2,0.1,0.3,0.2,0.4c0,0.1,0.1,0.2,0.1,0.2c0,0.1,0.1,0.1,0.1,0.1l0.4,0l-0.1,0.2c-0.4,0.6-0.8,1.2-1.1,1.8l-3.9,6.5
			c-0.6,1.1-1.1,2-1.5,2.8c-0.4,0.8-0.7,1.5-0.9,2.1c-0.2,0.6-0.4,1.2-0.5,1.7c-0.1,0.5-0.1,1.1-0.1,1.6c0.1,1.1,0.3,2,0.7,2.7
			c0.4,0.7,0.8,1.3,1.2,1.7c0.4,0.4,0.8,0.6,1.2,0.6c0.4,0,0.5-0.1,0.5-0.5c0-0.7,0.3-1.8,0.9-3.2c0.6-1.5,1.5-3.2,2.5-5.2
			c1.1-2,2.2-4.1,3.6-6.3c1.3-2.2,2.7-4.4,4-6.5l0.1-0.1l0.8,0.1c1,0.3,1.7,0.4,2.1,0.6c0.5,0.1,0.9,0.2,1.2,0.3
			c0.3,0,0.7,0.1,1,0.1c0.4,0,0.9,0,1.7,0c0.5,0,1,0,1.4-0.1c0.4-0.1,0.8-0.1,1.1-0.2c1-0.4,1.7-0.8,2.2-1.1c0.5-0.4,0.8-0.7,1-1
			c0.2-0.3,0.3-0.5,0.2-0.8c0-0.2,0-0.4-0.1-0.5c-0.1-0.2-0.3-0.3-0.6-0.3c-0.2,0-0.3,0-0.5,0.1c-0.1,0-0.2,0-0.2,0
			c-0.2,0.1-0.6,0.1-1.1,0.1c-0.8,0-1.6-0.1-2.3-0.2c-0.7-0.1-1.4-0.2-1.9-0.4c-0.6-0.1-1-0.3-1.4-0.4c-0.4-0.1-0.6-0.2-0.7-0.2
			l-1.3-0.3l0.1-0.2c0.4-0.6,0.7-1.2,1.2-2c0.4-0.7,0.9-1.5,1.4-2.3c0.5-0.8,0.9-1.5,1.3-2.3c0.4-0.7,0.8-1.4,1.1-1.9
			c0.2,0.1,0.4,0.2,0.7,0.3c0.2,0.1,0.5,0.2,0.7,0.3c1.1,0.5,2.4,0.9,3.8,1.2c1.4,0.4,2.8,0.6,4.1,0.8C60.4,30,61.2,30,62,30
			c-0.1,0.3-0.1,0.6-0.1,1c-0.1,0.9-0.1,1.6,0.1,2.3c0.2,0.7,0.4,1.3,0.7,1.7c0.3,0.5,0.6,0.8,0.9,1.1c0.3,0.2,0.6,0.4,0.9,0.4
			c0.2,0,0.3,0,0.4,0c0.1,0,0.2-0.1,0.3-0.3c0.1-0.2,0.3-0.4,0.5-0.8c0.2-0.3,0.5-0.8,0.9-1.5c0.4-0.6,0.7-1.2,1.1-1.6
			c0.2-0.3,0.5-0.5,0.7-0.7c0.8,0.2,1.8,0.3,3,0.3c1,0,1.9,0,2.8,0s1.8,0,2.6-0.1c-0.9,1.6-1.8,3.2-2.7,4.9s-1.9,3.3-2.7,4.9
			c-0.5,0.9-1,1.8-1.5,2.6c-0.2,0.1-0.3,0.2-0.5,0.4c-1.1,1.6-2.3,3.3-3.7,5c-1.4,1.7-2.7,3.2-4,4.6c-1.3,1.4-2.5,2.5-3.5,3.4
			c-1,0.9-1.7,1.3-2.1,1.3c-0.8,0-1.3-0.3-1.3-0.9c0-0.6,0.1-1.4,0.5-2.3c0.4-1,1-2,1.7-3.2c0.7-1.2,1.5-2.3,2.2-3.5
			s1.3-2.2,1.9-3.2c0.5-1,0.8-1.8,0.9-2.5c0.1-0.9,0-1.7-0.1-2.4c-0.2-0.7-0.4-1.3-0.8-1.7c-0.3-0.5-0.7-0.8-1.1-1.1
			c-0.4-0.2-0.7-0.4-1-0.4c-0.3,0-0.5,0.1-0.6,0.2c-0.1,0.1-0.2,0.3-0.3,0.5C58.1,38.8,58,39,58,39.3c0,0.3-0.1,0.5-0.2,0.7
			c-0.6,1.4-1.3,2.9-2.1,4.3c-0.8,1.4-1.6,2.8-2.4,4.1c-0.8,1.3-1.4,2.5-2,3.7c-0.6,1.1-0.9,2.1-1,3c-0.1,0.6,0,1.3,0,2.1
			c0.1,0.8,0.3,1.5,0.6,2.1c0.3,0.7,0.8,1.2,1.3,1.6c0.6,0.4,1.3,0.6,2.2,0.6c0.7,0,1.6-0.3,2.6-1.1c1-0.7,2.1-1.6,3.2-2.7
			c1.1-1.1,2.2-2.3,3.3-3.6c0.8-0.9,1.5-1.8,2.2-2.7c-0.4,0.8-0.7,1.6-0.9,2.3c-0.4,1-0.5,1.7-0.5,2.3c0,0.6,0,1.2,0.1,1.8
			c0.1,0.7,0.3,1.3,0.6,1.8c0.3,0.5,0.7,1,1.3,1.4c0.5,0.4,1.3,0.5,2.2,0.5c0.7,0,1.6-0.4,2.7-1.1c1-0.7,2.1-1.6,3.2-2.7
			c1.1-1.1,2.3-2.3,3.4-3.6c1.1-1.3,2.2-2.5,3.2-3.7c1-1.2,1.8-2.2,2.4-3.1c0.7-0.9,1.1-1.4,1.2-1.7c0.3-0.4,0.4-0.7,0.4-1
			c0-0.3-0.1-0.4-0.3-0.5c-0.2-0.1-0.4-0.1-0.6,0c-0.2,0.1-0.4,0.2-0.6,0.5c-1.1,1.6-2.3,3.2-3.7,4.9c-1.4,1.7-2.8,3.2-4.1,4.6
			c-1.3,1.4-2.5,2.5-3.6,3.4c-1.1,0.9-1.8,1.3-2.1,1.3c-0.6,0-0.8-0.4-0.6-1.3c0.2-0.9,0.6-2,1.3-3.5c0.7-1.5,1.6-3.1,2.7-5
			c1.1-1.9,2.2-3.9,3.4-5.9s2.4-4.1,3.6-6.2c1.2-2.1,2.3-4,3.3-5.8c0.5,0,1,0,1.5,0c0.5,0,1,0,1.5,0c1.3,0,2.5,0.2,3.5,0.5
			c1,0.3,1.9,0.7,2.6,1.1c0.3,0.2,0.6,0.4,0.9,0.6c-0.2,0.5-0.4,1.1-0.7,1.6c-0.8,1.8-1.6,3.5-2.4,5.2c-0.9,1.8-1.7,3.4-2.4,5
			c-0.8,1.6-1.4,3-1.9,4.4c-0.5,1.3-0.7,2.4-0.7,3.2c0,1.3,0.2,2.4,0.5,3.4c0.3,0.9,0.8,1.7,1.3,2.3c0.6,0.6,1.2,1.1,1.9,1.3
			c0.7,0.3,1.4,0.4,2.1,0.4c0.7,0,1.6-0.3,2.6-0.8c1-0.5,1.9-1.2,2.9-2.1c1-0.9,2-1.8,3-2.8c1-1,1.9-2,2.7-3c0,1.1,0.2,2.1,0.4,3.1
			c0.2,1,0.6,2,1.2,2.8c0.6,0.8,1.3,1.5,2.2,2c0.9,0.5,2,0.8,3.4,0.8c1.2,0,2.6-0.6,4.1-1.7c1.6-1.2,3.2-2.7,4.8-4.6
			c1.6-1.9,3.2-4.2,4.8-6.7c1.6-2.5,3-5.1,4.2-7.8C129.1,36.9,130.1,34.2,130.9,31.6z M107.4,41.9c0.4-0.8,0.8-1.6,1.2-2.3
			c0.4-0.7,1-1.1,1.6-1.1c0.6,0,0.8,0.3,0.6,1c-0.2,0.7-0.6,1.5-1.2,2.3c-0.6,0.9-1.2,1.6-1.8,2.3c-0.6,0.7-1.1,1-1.4,1
			C106.6,44,106.9,42.9,107.4,41.9z M68.6,24.4c-0.4,0.2-0.9,0.4-1.5,0.5c-0.6,0.1-1.2,0.2-1.9,0.3c-0.7,0.1-1.4,0.1-2.2,0.1
			c-0.9,0-1.8-0.1-2.6-0.3c-0.8-0.2-1.6-0.4-2.3-0.6c-0.8-0.3-1.5-0.5-2.2-0.9c-0.7-0.3-1.4-0.6-2.1-0.9l-0.2-0.1l0.1-0.2
			c1-0.7,1.9-1.3,2.8-1.7c0.8-0.4,1.8-0.8,2.9-1c1.1-0.3,2.3-0.3,3.5-0.2c0.5,0,1.2,0.1,1.8,0.3c0.7,0.2,1.3,0.4,1.8,0.6
			c1.1,0.5,1.9,1,2.5,1.6c0.5,0.6,0.7,1.2,0.4,1.7C69.2,23.9,69,24.1,68.6,24.4z"/>
	</g>
</g>
<g>
	<path d="M26.6,73.9h-1.4v-8.6h4.8v1.2h-3.4v2.7h3.2v1.2h-3.2V73.9z"/>
	<path d="M46.3,73.9v-8.6h1.4v8.6H46.3z"/>
	<path d="M67.1,73.9h-1.4v-7.4h-2.5v-1.2h6.4v1.2h-2.5V73.9z"/>
	<path d="M89.4,73.9h-1.7L83.4,67h0l0,0.4c0.1,0.7,0.1,1.4,0.1,2v4.5h-1.3v-8.6h1.7l4.2,6.8h0c0-0.1,0-0.4,0-1c0-0.6,0-1,0-1.3v-4.5
		h1.3V73.9z"/>
	<path d="M107.6,73.9h-4.8v-8.6h4.8v1.2h-3.4v2.3h3.2V70h-3.2v2.7h3.4V73.9z"/>
	<path d="M127.3,71.6c0,0.8-0.3,1.4-0.8,1.8c-0.6,0.4-1.3,0.7-2.3,0.7c-1,0-1.8-0.2-2.4-0.5v-1.3c0.4,0.2,0.8,0.3,1.2,0.4
		s0.8,0.2,1.2,0.2c0.6,0,1-0.1,1.2-0.3c0.3-0.2,0.4-0.5,0.4-0.9c0-0.3-0.1-0.6-0.4-0.8c-0.2-0.2-0.7-0.5-1.5-0.8
		c-0.8-0.3-1.3-0.7-1.7-1.1c-0.3-0.4-0.5-0.9-0.5-1.5c0-0.7,0.3-1.3,0.8-1.7c0.5-0.4,1.2-0.6,2-0.6c0.8,0,1.6,0.2,2.5,0.5l-0.4,1.1
		c-0.8-0.3-1.4-0.5-2-0.5c-0.5,0-0.8,0.1-1,0.3c-0.2,0.2-0.4,0.5-0.4,0.8c0,0.2,0,0.4,0.1,0.6c0.1,0.2,0.2,0.3,0.5,0.4
		c0.2,0.1,0.6,0.3,1.2,0.6c0.6,0.3,1.1,0.5,1.4,0.7c0.3,0.2,0.5,0.5,0.6,0.8C127.2,70.8,127.3,71.2,127.3,71.6z"/>
	<path d="M146.7,71.6c0,0.8-0.3,1.4-0.8,1.8c-0.6,0.4-1.3,0.7-2.3,0.7s-1.8-0.2-2.4-0.5v-1.3c0.4,0.2,0.8,0.3,1.2,0.4
		s0.8,0.2,1.2,0.2c0.6,0,1-0.1,1.2-0.3c0.3-0.2,0.4-0.5,0.4-0.9c0-0.3-0.1-0.6-0.4-0.8c-0.2-0.2-0.7-0.5-1.5-0.8
		c-0.8-0.3-1.3-0.7-1.7-1.1c-0.3-0.4-0.5-0.9-0.5-1.5c0-0.7,0.3-1.3,0.8-1.7c0.5-0.4,1.2-0.6,2-0.6c0.8,0,1.6,0.2,2.5,0.5l-0.4,1.1
		c-0.8-0.3-1.4-0.5-2-0.5c-0.5,0-0.8,0.1-1,0.3c-0.2,0.2-0.4,0.5-0.4,0.8c0,0.2,0,0.4,0.1,0.6c0.1,0.2,0.2,0.3,0.5,0.4
		c0.2,0.1,0.6,0.3,1.2,0.6c0.6,0.3,1.1,0.5,1.4,0.7c0.3,0.2,0.5,0.5,0.6,0.8C146.6,70.8,146.7,71.2,146.7,71.6z"/>
</g>
</svg>
