<?xml version="1.0" encoding="utf-8"?>
<!-- Generator: Adobe Illustrator 19.1.0, SVG Export Plug-In . SVG Version: 6.00 Build 0)  -->
<svg version="1.1" id="Layer_1" xmlns="http://www.w3.org/2000/svg" xmlns:xlink="http://www.w3.org/1999/xlink" x="0px" y="0px"
	 viewBox="0 0 1024 768" style="enable-background:new 0 0 1024 768;" xml:space="preserve">
<style type="text/css">
	.st0{fill:#FFFFFF;}
	.st1{stroke:#000000;stroke-miterlimit:10;}
</style>
<path d="M699.8,330.9C699.8,330.9,699.8,330.9,699.8,330.9c-0.7-0.9-1.7-1.4-2.8-1.4c-1.5,0-2.8,0.6-3.7,1.7c-0.4,0.5-0.8,1-1.1,1.5
	c-0.1,0.2-0.3,0.4-0.5,0.6c0,0-0.1,0-0.1,0c-1.4,0-2.8-0.3-4.1-0.9c-1.5-0.6-2.9-1.5-4.3-2.6c-1.4-1.1-2.8-2.3-4.1-3.7
	c-1.3-1.5-2.6-3-3.7-4.5c-1.9-2.5-3.7-5.3-5.4-8.4c1.8-0.2,3.5-0.6,5.1-1.1c2.9-1,5.5-2.2,7.7-3.8c2.2-1.6,4-3.5,5.2-5.5
	c1.3-2.2,1.9-4.4,1.9-6.6c0-2.1-0.3-3.8-0.8-5.3c-0.6-1.5-1.3-2.7-2.1-3.5c-1.9-1.8-3.8-1.3-4.5-1c-0.9,0.4-2.5,1.4-2.5,4.3
	c0,0.1,0,0.6-0.7,1.7c-0.7,1.1-1.6,2.2-2.7,3.4c-1.2,1.2-2.5,2.4-3.9,3.6c-1.5,1.2-2.9,2.3-4.3,3.2c-0.1,0.1-0.2,0.2-0.4,0.2
	c0.6-0.9,1.1-1.8,1.7-2.7c2-3.2,3.9-6.1,5.5-8.9c1.7-2.8,3.1-5.3,4.2-7.5c1.3-2.6,1.9-4.5,1.9-6c0-2.1-0.5-3.9-1.4-5.5
	c-0.9-1.5-1.9-2.7-3-3.6c-1.3-1-2.5-1.6-3.8-1.7c-1.2-0.1-2.3,0.2-3.1,0.9c-0.8,0.7-1.2,1.7-1.2,2.9c0,0.5-0.2,1.9-1.5,4.7
	c-1.2,2.5-2.7,5.2-4.5,8.3c-1.8,3.1-3.8,6.4-5.9,9.8c-0.6,0.9-1.2,1.9-1.7,2.8c-0.3-1.1-0.8-2.1-1.4-3c-0.7-1-1.5-1.9-2.4-2.7
	c-0.7-0.6-1.3-1.1-1.6-1.4c-2.4-1.9-4.5-0.8-5.1-0.4c-0.5,0.3-0.9,0.6-1.4,0.9c-0.1,0.1-0.3,0.2-0.8,0.4c0.2-0.4,0.5-0.8,0.7-1.2
	c0.6-1.1,1.2-2.3,1.7-3.4c0.5-1.2,1-2.3,1.3-3.3c0.4-1.2,0.6-2.4,0.6-3.4c0-2.4-0.9-4.4-2.5-5.7c-3-2.6-7.1-2.6-11.2-0.1
	c-1.8,1.1-3.6,2.7-5.2,4.7c-1.6,1.9-2.9,4.2-4,6.9c-1,2.5-1.5,5.2-1.6,8.1c-0.6-0.7-1.3-1.3-2-1.8c-2-1.5-4.3-2.3-7-2.3
	c-1.7,0-3.6,0.5-5.6,1.3c-1.8,0.8-3.6,1.9-5.4,3.4c-0.7,0.5-1.3,1.1-2,1.7c0.9-2.4,1.7-4.7,2.4-7.1c1.2-4.3,1.8-8.3,1.8-12
	c0-4.8-1.1-9.1-3.2-12.6c-2-3.3-4.4-6.1-7.1-8.3c-2.7-2.2-5.5-3.8-8.2-4.8c-2.9-1.1-4.9-1.6-6.5-1.6c-1.6,0-3.1,0.3-4.2,0.9
	c-1.4,0.7-2.3,1.5-2.9,2.6c-0.7,1.4-0.7,2.9,0,4.1c0.5,1,1.7,2.1,4.2,2.1c1,0,1.8,0,2.4-0.1c0.8-0.1,1.4-0.3,2-0.5c0,0,0.1,0,0.1,0
	c1,0.4,1.8,0.9,2.7,1.6c0.9,0.8,1.9,2,2.7,3.6c0.8,1.5,1.2,3.6,1.2,6.4c0,2-0.3,4.7-0.9,8.2c-0.6,3.5-1.4,7.4-2.5,11.6
	c-1.1,4.1-2.3,8.4-3.8,12.7c-1.4,4.2-3.1,8.1-4.8,11.5c-1.7,3.3-3.5,6-5.3,8c-1,1.1-2.4,2.3-3.9,2.3c-0.2,0-0.3,0-0.3,0
	c0,0-0.1-0.1-0.2-0.3c-0.5-1.1-0.8-2.4-0.9-3.8c-0.2-1.5-0.2-3.1,0-5c1.4-1.1,2.7-2.2,3.8-3.4c1.3-1.3,2.6-2.9,3.8-4.8
	c1.3-2,2.1-4.2,2.4-6.5c0.3-2.6-0.1-4.6-1.4-6c-1.2-1.3-2.9-2-5-2c-2.8,0-5.2,1.1-7.1,3.3c-1.5,1.7-2.8,3.8-3.8,6
	c-0.9,2.1-1.7,4.2-2.1,6.3c-0.3,1.4-0.6,2.5-0.8,3.3c-1.2,1.4-2.4,2.8-3.8,4.3c-1.6,1.7-3.1,3.3-4.6,4.6c-0.5,0.5-1,0.9-1.4,1.3
	c0.1-0.2,0.2-0.3,0.3-0.5c1.1-2.2,2.6-4.7,4.2-7.4c1.7-2.8,3.3-5.6,4.9-8.4c1.6-2.8,3-5.6,4.2-8.2c1.3-2.9,1.9-5.3,1.9-7.4
	c0-3-0.7-5.6-2.2-7.8c-1.3-2-2.9-3.5-4.6-4.6c-1.7-1.1-3.4-1.7-5-1.8c-1.6-0.2-2.8,0.2-3.8,1c-0.8,0.7-1.2,1.7-1.2,2.8
	c0,1-0.1,2.1-0.3,3.3c-1-0.5-2.1-1-3.2-1.4c-1.3-0.4-2.7-0.7-4.3-0.9c0,0,0-0.1,0-0.1c0.6-1.5,0.8-2.7,0.8-3.7
	c0-2.4-0.5-4.4-1.5-6.1c-0.9-1.6-2-2.8-3.2-3.7c-1.4-1-2.7-1.5-4-1.6c-1.6-0.1-2.6,0.5-3.1,1c-0.7,0.7-1.1,1.7-1.1,2.7
	c0,0.3-0.1,1.4-1.4,4.5c-0.9,2.1-2.1,4.6-3.6,7.4c-0.9,0.1-1.9,0.2-2.9,0.2c-1,0.1-2.1,0.1-3.2,0.1c0.2-0.5,0.3-1,0.4-1.5
	c0.3-1.9,0-3.8-0.9-5.7c-0.8-1.7-2-3.4-3.6-4.9c-1.6-1.6-3.6-2.9-5.8-3.8c-2.2-0.9-4.5-1.5-6.8-1.7c-3-0.4-5.9-0.3-8.5,0.1
	c-2.5,0.4-4.7,1-6.6,1.7c-2,0.7-3.5,1.4-4.8,2.2c-0.2,0.1-0.4,0.3-0.6,0.4c-0.9-0.4-2-0.9-3.2-1.4c-2-0.9-4.4-1.8-6.9-2.8
	c-2.6-1-5.4-2-8.2-3c-2.9-1-5.9-1.9-8.8-2.8c-3-0.8-5.8-1.5-8.6-2c-2.8-0.5-5.5-0.8-7.8-0.8c-4.3,0-8.1,0.6-11.5,1.9
	c-3.4,1.3-6.3,3-8.7,5.1c-2.4,2.1-4.3,4.6-5.6,7.3c-1.3,2.7-2,5.5-2.2,8.3c-0.2,3,0.4,5.9,1.8,8.7c1.3,2.7,3.3,5.1,5.8,7.2
	c2.2,1.8,4.7,3.2,7.3,4.1c2.7,1,5.4,1.5,8.1,1.5c3.2,0,6.3-0.5,9.1-1.4c2.8-0.9,5.2-2.2,7.3-3.7c2.1-1.5,3.8-3.4,5.1-5.4
	c1.3-2.1,2-4.3,2.2-6.6c0.1-2.9-1-5.3-3.5-7.4c-1.3-1-2.9-1.8-4.6-2.5c-3.5-1.2-7.1-1.3-10.1-0.1c-2,0.8-3.3,2.3-3.8,4.2l-0.8,3.7
	h3.8c0,0,0.4,0,1.6,0.2c0.5,0.1,0.9,0.3,1.3,0.6c0.2,0.2,0.6,0.5,0.5,1.7l0,0.2c0,1.3-0.5,2.2-1.5,2.9c-1.2,0.9-2.9,1.3-5.1,1.3
	c-1.5,0-3.2-0.4-5-1.1c-1.9-0.7-3.5-1.7-4.9-2.8c-0.9-0.7-1.8-1.7-2.6-3c-0.6-0.9-0.9-2.1-0.9-3.5c0.2-3,1.4-5.1,3.7-6.8
	c2.5-1.8,6.3-2.7,11-2.7c2.2,0,4.7,0.3,7.4,0.9c2.8,0.6,5.8,1.4,8.7,2.4c3,1,5.9,2.1,8.8,3.2c2.9,1.2,5.5,2.3,7.8,3.2
	c2.1,0.9,3.8,1.7,5.2,2.4c-0.6,1-1.1,2.1-1.8,3.2c-0.6,1.1-1.3,2.2-2,3.3c-0.7,1.1-1.4,2.1-2,3.1c-0.4,0.6-0.6,0.8-0.8,1
	c-0.2,0.2-0.4,0.4-0.6,0.7c-0.3,0.1-0.6,0.2-0.9,0.3c-1,0.4-1.9,0.9-2.8,1.5c-0.9,0.6-1.7,1.4-2.4,2.1c-0.7,0.9-1.2,1.8-1.6,2.7
	c-0.5,1.3-0.4,2.7,0.1,3.9c0.1,0.1,0.1,0.3,0.2,0.4c-0.2,0.4-0.5,0.8-0.7,1.1l-6,9.9c-0.9,1.7-1.7,3.1-2.3,4.4
	c-0.6,1.3-1.1,2.4-1.5,3.4c-0.4,1.1-0.7,2.2-0.8,3.1c-0.2,1-0.2,2-0.1,3.1c0.1,2,0.6,3.8,1.3,5.3c0.8,1.5,1.6,2.6,2.5,3.5
	c1.2,1,2.3,1.6,3.5,1.7c1.2,0.1,2.2-0.3,2.9-1c0.8-0.8,1.1-1.8,1-2.9c0,0,0-0.9,1.1-3.6c0.9-2.2,2.2-4.7,3.7-7.6
	c1.6-2.9,3.3-6.1,5.3-9.4c1.6-2.8,3.3-5.5,5-8.2c1,0.3,1.7,0.5,2.2,0.6c0.8,0.2,1.5,0.4,2.1,0.5c0.6,0.1,1.2,0.1,1.9,0.2
	c0.6,0,1.5,0,2.7,0c1,0,1.8-0.1,2.6-0.2c0.7-0.1,1.4-0.3,2.1-0.5l0.2-0.1c1.3-0.5,2.4-1,3.2-1.5c-0.4,0.8-0.9,1.7-1.3,2.5
	c-1.2,2.1-2.4,4.2-3.5,6.1c-1.2,2-2.2,3.9-3.1,5.7c-1.1,2.1-1.6,3.9-1.8,5.6c-0.1,1.2-0.1,2.5,0.1,3.8c0.2,1.5,0.6,2.9,1.2,4.1
	c0.7,1.4,1.7,2.6,2.9,3.5c1.4,1,3.1,1.6,5.2,1.6c1.7,0,3.6-0.7,5.7-2.1c1.7-1.1,3.4-2.6,5.2-4.4c0.5-0.4,0.9-0.9,1.4-1.4
	c0.2,1.3,0.6,2.5,1.2,3.6c0.7,1.2,1.6,2.3,2.8,3.1c1.3,0.9,3,1.3,4.9,1.3c1.7,0,3.6-0.7,5.7-2.1c1.7-1.1,3.5-2.6,5.3-4.4
	c1.8-1.7,3.5-3.5,5.3-5.5c1.8-2,3.4-3.9,4.8-5.6c0.9-1.1,1.8-2.2,2.5-3.1c-0.6,1.8-0.9,3.4-0.9,4.8c0,2.3,0.3,4.3,1,6.1
	c0.7,1.8,1.5,3.3,2.6,4.5c1.1,1.3,2.4,2.2,3.9,2.8c1.4,0.6,2.8,0.9,4.3,0.9c1.6,0,3.4-0.5,5.3-1.6c1.6-0.9,3.3-2.1,4.9-3.5
	c1.5-1.3,3.1-2.8,4.6-4.4c0.4,1.4,1.1,2.7,1.8,3.9c1.1,1.6,2.5,3,4.3,4c1.8,1,4,1.5,6.6,1.5c2.5,0,5.1-1,8-3.2
	c2.5-1.9,5.1-4.4,7.7-7.5c1.6-1.9,3.1-3.9,4.7-6.1c0,0.5,0,1,0,1.5c0,2.4,0.3,4.3,1.1,5.9c0.7,1.6,1.7,2.9,2.8,3.8
	c1.1,0.9,2.3,1.6,3.6,1.9c1.1,0.3,2.2,0.5,3.2,0.5h2l0.3-0.3c2.3-0.4,4.6-1.4,6.8-2.9c2.2-1.5,4.2-3.3,6.1-5.3l0.2-0.2
	c0.1-0.1,0.1-0.1,0.2-0.2c2,0.6,4.4,0.2,6.5-1.2c1.3-0.8,2.5-1.8,3.6-2.9c1.1-1.1,2.1-2.3,3.1-3.7c0.9-1.3,1.8-2.5,2.6-3.6
	c0.8-1.2,1.5-2.2,2-3.2c0.4-0.7,0.7-1.2,0.9-1.5c0.3,0,0.5-0.1,0.8-0.1c-0.9,1.6-1.7,3.4-2.5,5.3c-1.1,2.5-2,5.1-2.7,7.8
	c-0.8,2.8-1.1,5.7-1.1,8.5c0,3.9,0.7,7.4,1.9,10.4c1.3,3,2.9,5.5,5,7.5c2,2,4.3,3.5,6.7,4.5c2.4,1,4.8,1.5,7.1,1.5
	c2.3,0,4.2-0.3,5.8-1c1.6-0.6,2.8-1.4,3.8-2.3c1.2-1,2.1-2.3,2.7-3.6l0.5-1.2l-0.5-1.2c-0.3-0.8-0.8-1.4-1.4-1.9l0,0
	c-0.8-0.6-1.9-0.9-2.9-0.7c-0.7,0.2-1.8,0.6-2.6,2c0,0-0.3,0.4-1.2,1c-0.2,0.1-1,0.6-3.2,0.6c-0.7,0-1.6-0.2-2.5-0.5
	c-0.8-0.3-1.7-0.9-2.4-1.7c-0.8-0.9-1.5-2.1-2.2-3.7c-0.6-1.7-1-3.9-1-6.6c0-2.8,0.5-5.6,1.4-8.4c0.7-2,1.4-3.8,2.2-5.6
	c-0.7,2.1-1.1,4-1.1,5.7c0,2,0.5,3.7,1.4,5c0.9,1.3,1.9,2.2,3,2.8c1.8,0.9,3.3,0.7,4.2,0.4c1.8-0.6,2.9-2.2,2.9-4.2
	c0,0,0-0.4,0.5-1.6c0.4-1.1,0.9-2.3,1.6-3.7c0.7-1.4,1.4-2.8,2.2-4.2c0.8,1.7,1.7,3.6,2.8,5.6c1.2,2.4,2.6,4.8,4.2,7.4
	c1.6,2.6,3.3,5,5.1,7.2c1.9,2.2,3.9,4.1,6,5.5c2.4,1.6,4.9,2.5,7.5,2.5c2.9,0,5.5-0.6,7.6-1.8c2-1.1,3.7-2.3,4.9-3.7
	c1.4-1.5,2.2-2.9,2.6-4.3C700.7,333.2,700.6,331.9,699.8,330.9z M504.2,273.9l1.3,0.6L504.2,273.9
	C504.2,273.9,504.2,273.9,504.2,273.9z M492.5,272.1c1.3-0.3,2.7-0.4,4.3-0.2c0.6,0,1.4,0.2,2.3,0.4c0.8,0.2,1.6,0.4,2.3,0.8
	c1,0.4,1.6,0.8,2,1.1c-0.2,0.1-0.4,0.1-0.6,0.2c-0.7,0.2-1.5,0.3-2.5,0.4c-1.7,0.2-4.2,0.3-6.3-0.2c-1.1-0.2-2.2-0.5-3.2-0.9
	c-0.5-0.2-0.9-0.3-1.4-0.5C490.4,272.7,491.4,272.3,492.5,272.1z M488.4,294.4c-1-1.5-2.8-2.1-4.8-1.6l-0.4,0l-0.5,0.2
	c-0.1,0-0.3,0-0.6,0c-1,0-2-0.1-3-0.2c-1-0.2-1.9-0.3-2.6-0.5c-0.5-0.1-0.9-0.2-1.3-0.3l0,0c0.7-1.1,1.4-2.3,2.1-3.5
	c0.7-1.2,1.4-2.4,2-3.5c0.1-0.1,0.2-0.3,0.2-0.4c1.7,0.7,3.7,1.3,5.7,1.9c2.2,0.6,4.4,1,6.7,1.2c0.2,0,0.4,0,0.5,0.1
	c0,1,0.1,2,0.3,2.9c0.3,1.3,0.8,2.5,1.4,3.4c0.2,0.3,0.4,0.7,0.6,0.9c-0.1-0.1-0.2-0.2-0.4-0.2c-1.1-0.7-2.2-1-3.2-1
	c-1,0-2,0.3-2.7,1L488.4,294.4z M511.3,293.5c-1.4,2.5-2.8,5-4.1,7.4c-0.6,1.2-1.3,2.3-1.9,3.4c-0.3,0.2-0.6,0.5-0.8,0.9l-0.1,0.1
	c-1.5,2.4-3.3,4.8-5.3,7.2c-2,2.5-4,4.8-5.9,6.8c-1.3,1.4-2.6,2.7-3.7,3.7c0.4-0.8,0.9-1.6,1.5-2.5c1.1-1.8,2.2-3.5,3.3-5.2
	c1.1-1.8,2.1-3.5,2.9-5c1-1.9,1.6-3.5,1.7-4.8c0.2-1.8,0.1-3.4-0.3-4.8c-0.4-1.4-0.9-2.6-1.6-3.5c-0.1-0.2-0.3-0.4-0.4-0.5
	c1,0.7,2,1,3,1c0.6,0,1.1-0.1,1.6-0.2c0.7-0.2,1.3-0.7,1.9-1.4c0.3-0.4,0.6-0.9,1-1.6c0.3-0.5,0.7-1.2,1.2-2.1
	c0.4-0.7,0.8-1.3,1.2-1.8c1.1,0.1,2.2,0.2,3.4,0.2h2.9L511.3,293.5z M540.2,291.4c-1.1,2.6-2.3,5.2-3.6,7.8
	c-1.1,2.2-2.1,4.4-3.1,6.4c-0.3-0.7-0.8-1.3-1.5-1.7c-1-0.6-2.2-0.7-3.4-0.3c-1,0.3-1.9,1-2.5,1.9c-1.5,2.3-3.3,4.7-5.4,7.1
	c-2.1,2.5-4.1,4.7-6.1,6.8c-0.8,0.8-1.5,1.6-2.2,2.2c0.9-1.9,2.1-4,3.4-6.4c1.6-2.8,3.3-5.8,5.2-8.9l5.5-9.3c1.5-2.5,2.9-5,4.2-7.3
	c0.1,0,0.3,0,0.4,0h2.3c1.7,0,3.2,0.2,4.5,0.6C538.7,290.7,539.5,291,540.2,291.4C540.2,291.3,540.2,291.4,540.2,291.4z
	 M610.5,306.2c-1.1,1.5-1.7,3.4-1.7,5.5c0,0.8,0,1.5,0.1,2.1c0.1,0.6,0.1,1.1,0.2,1.5c-1,1-2.1,2-3.1,2.8c-1.1,1-2.3,1.9-3.6,2.7
	c-0.2,0.2-0.5,0.3-0.7,0.4c0.1-0.6,0.3-1.3,0.6-2.2c0.6-1.7,1.5-3.6,2.7-5.7c1.2-2,2.5-3.9,4.1-5.7c0.5-0.6,1-1.1,1.5-1.6
	C610.6,306,610.6,306.1,610.5,306.2z M622.9,306.4c-0.4,0.5-0.7,1-1,1.5c-0.3-2.3-1.4-3.5-2.4-4.2c-1-0.6-2-1-3.1-1
	c-0.7,0-1.3,0.1-2,0.3c-0.1,0-0.2,0.1-0.3,0.1c1.4-0.9,2.8-1.4,4.2-1.4c2.5,0,4-0.4,5-1.3c0.4,1,1,1.9,1.6,2.5c0,0,0.1,0.1,0.1,0.1
	C624.3,304.4,623.6,305.5,622.9,306.4z"/>
<g>
	<path class="st0" d="M656.5,342.6c-0.4,0.7-1.1,1.4-2.2,2.1c-1.1,0.7-2.7,1-4.8,1c-1.1,0-2.2-0.2-3.5-0.7c-1.3-0.5-2.5-1.3-3.6-2.4
		c-1.1-1.2-2-2.7-2.8-4.8c-0.8-2-1.2-4.6-1.2-7.7s0.5-6.2,1.5-9.3c1-3.1,2.3-6,3.7-8.6s2.9-5,4.3-7c1.5-2,2.6-3.5,3.4-4.5
		c0.8-0.9,1.1-1.8,1-2.8c-0.2-0.9-0.5-1.8-1.1-2.6c-0.6-0.8-1.2-1.5-1.9-2.2c-0.7-0.6-1.2-1.1-1.5-1.3c-0.6-0.5-1.2-0.6-1.7-0.3
		c-0.5,0.3-1,0.6-1.4,0.9c-0.4,0.2-1.2,0.7-2.4,1.3c-1.2,0.6-2.4,1.3-3.7,1.9c-1.5,0.8-3.2,1.7-5,2.6c1.8-2.6,3.5-5.1,5-7.5
		c0.6-1,1.2-2.1,1.8-3.1c0.6-1.1,1.1-2.1,1.6-3.2c0.5-1.1,0.9-2.1,1.2-3s0.4-1.8,0.4-2.5c0-1.5-0.5-2.6-1.4-3.5
		c-1-0.8-2.1-1.2-3.5-1.2c-1.2,0-2.7,0.5-4.2,1.4c-1.6,1-3,2.3-4.4,4c-1.4,1.7-2.6,3.7-3.5,6.1c-0.9,2.4-1.4,4.9-1.4,7.8
		c0,2,0.2,3.6,0.6,4.8c0.4,1.2,0.9,2.1,1.4,2.8c0.6,0.6,1.2,1.1,1.8,1.3c0.1,0,0.1,0,0.2,0c-1.4,2.1-2.6,4-3.8,5.7
		c-1.2,1.8-2.3,3.2-3.3,4.5c-1,1.2-1.9,2.2-2.8,2.8s-1.7,1-2.6,1c-0.2,0-0.4-0.1-0.8-0.2c-0.3-0.1-0.5-0.2-0.6-0.3
		c1.2-1.5,2-2.9,2.7-4c0.6-1.1,0.9-2,0.9-2.7c0-1.5-0.4-2.5-1.1-3c-0.7-0.5-1.6-0.6-2.4-0.3c-0.9,0.3-1.7,1-2.4,2s-1.1,2.2-1.1,3.7
		c0,0.7,0,1.3,0.1,1.8c0,0.5,0.1,1,0.2,1.4c0.1,0.5,0.2,0.9,0.4,1.2c-1.5,1.6-3,3-4.5,4.2c-1.2,1.1-2.6,2.1-4,3
		c-1.4,0.9-2.6,1.3-3.7,1.3c-1.1,0-1.6-0.6-1.7-1.9c-0.1-1.3,0.2-2.9,0.9-4.8c0.7-1.9,1.6-3.9,2.9-6.2c1.3-2.2,2.7-4.3,4.4-6.2
		c1.7-1.9,3.5-3.5,5.5-4.8c2-1.3,3.9-1.9,5.9-1.9c1.6,0,2.7-0.2,3.1-0.6c0.4-0.4,0.6-0.7,0.4-0.9c-0.9-1.5-2.1-2.9-3.5-4
		c-1.4-1.1-3.2-1.7-5.2-1.7c-1.3,0-2.7,0.4-4.3,1.1c-1.6,0.7-3.2,1.7-4.8,3c-1.6,1.3-3.2,2.8-4.7,4.5c-1.5,1.7-2.9,3.6-4,5.5
		c-1.2,2-2.1,4-2.8,6.2c-0.7,2.2-1,4.3-1,6.5c0,1.9,0.3,3.5,0.8,4.6c0.5,1.2,1.2,2.1,2,2.7s1.6,1.1,2.5,1.3c0.9,0.2,1.7,0.4,2.4,0.4
		h0.7c0,0,0.2-0.1,0.4-0.1c0.1,0,0.2,0,0.2-0.1c2-0.3,4-1.1,6-2.5c2-1.4,3.9-3,5.6-4.8c0.1-0.2,0.3-0.4,0.4-0.5
		c0.1-0.1,0.2-0.3,0.3-0.4c0.1-0.1,0.2-0.2,0.3-0.3c0.2-0.2,0.5-0.6,0.8-0.9c0.3,0.2,0.7,0.5,1.1,0.6c0.5,0.2,0.9,0.3,1.5,0.3
		c1,0,2-0.3,3.1-1c1.1-0.6,2.1-1.5,3.1-2.5c1-1,1.9-2.1,2.8-3.3c0.9-1.2,1.7-2.4,2.5-3.5c0.7-1.1,1.4-2.1,1.9-3
		c0.5-0.9,0.9-1.5,1.1-1.9c0.3-0.4,0.4-0.7,0.5-1c1.8-0.1,3.4-0.3,4.9-0.7c1.7-0.5,3.1-1,4.2-1.4c-0.9,1.3-1.9,2.9-3,4.9
		c-1.1,2-2.2,4.1-3.2,6.5c-1,2.4-1.9,4.8-2.6,7.4c-0.7,2.6-1,5.1-1,7.7c0,3.5,0.6,6.6,1.7,9.2c1.1,2.6,2.6,4.8,4.3,6.5
		c1.8,1.7,3.7,3,5.8,3.9c2.1,0.9,4.1,1.3,5.9,1.3s3.4-0.3,4.6-0.8c1.2-0.5,2.2-1.1,2.9-1.8c0.9-0.8,1.5-1.6,1.9-2.6
		c-0.1-0.2-0.2-0.4-0.4-0.6C657.2,341.8,656.8,342,656.5,342.6z M631.3,296.2c-0.2-0.3-0.3-0.7-0.5-1.2c-0.1-0.5-0.2-1-0.2-1.7
		c0-0.9,0.3-1.9,0.8-3.1s1.2-2.4,2-3.5c0.8-1.1,1.6-2,2.4-2.8c0.8-0.8,1.6-1.2,2.2-1.2c0.6,0,0.8,0.4,0.6,1.2
		c-0.2,0.8-0.6,1.9-1.3,3.2c-0.6,1.3-1.5,2.9-2.5,4.6s-2,3.6-3.1,5.5C631.7,296.9,631.5,296.6,631.3,296.2z"/>
	<path class="st0" d="M696.9,332.6c-0.6,0-1,0.2-1.4,0.6c-0.3,0.4-0.7,0.8-1,1.3c-0.3,0.5-0.7,0.9-1.2,1.3c-0.5,0.4-1.1,0.6-2,0.6
		c-1.8,0-3.6-0.4-5.3-1.1c-1.7-0.7-3.3-1.7-4.9-2.9c-1.6-1.2-3.1-2.6-4.5-4.1c-1.4-1.5-2.7-3.1-3.9-4.8c-2.8-3.7-5.4-8-7.8-12.9
		c3.3,0,6.3-0.4,9-1.3c2.7-0.9,4.9-2,6.8-3.3c1.9-1.4,3.3-2.9,4.4-4.6c1-1.7,1.5-3.4,1.5-5.1c0-1.7-0.2-3.1-0.6-4.2
		c-0.4-1.1-0.9-1.9-1.3-2.3c-0.5-0.5-0.9-0.6-1.3-0.4c-0.4,0.2-0.6,0.7-0.6,1.5c0,1-0.4,2.1-1.2,3.3c-0.8,1.2-1.8,2.5-3.1,3.9
		c-1.3,1.3-2.7,2.6-4.2,3.9c-1.5,1.2-3,2.4-4.5,3.3c-1.5,1-2.8,1.8-4,2.4c-1.2,0.6-2.1,0.9-2.8,0.9c-0.3,0-0.7-0.1-1-0.2
		c-0.3-0.1-0.6-0.3-0.8-0.4c1.8-3,3.7-6,5.7-9.1c2-3.1,3.8-6.1,5.5-8.8c1.7-2.8,3.1-5.2,4.1-7.3c1.1-2.1,1.6-3.6,1.6-4.6
		c0-1.5-0.3-2.9-1-4c-0.7-1.2-1.4-2.1-2.3-2.7s-1.6-1-2.3-1.1c-0.7-0.1-1,0.2-1,0.8c0,1.5-0.6,3.5-1.8,6c-1.2,2.5-2.7,5.4-4.6,8.5
		c-1.8,3.1-3.8,6.4-6,9.9c-2.2,3.5-4.2,6.8-6,10.1c-1.8,3.3-3.3,6.3-4.6,9.2c-1.2,2.9-1.8,5.2-1.8,7.2c0,1.4,0.3,2.5,0.9,3.4
		c0.6,0.9,1.2,1.5,1.9,1.8c0.7,0.4,1.3,0.4,1.9,0.3c0.6-0.2,0.9-0.6,0.9-1.4c0-0.6,0.2-1.5,0.6-2.7c0.4-1.2,1-2.5,1.7-3.9
		c0.7-1.5,1.5-3,2.4-4.6c0.9-1.6,1.8-3.2,2.8-4.8c0.5,1,1.2,2.4,2,4.3c0.9,1.9,1.9,4,3.1,6.4c1.2,2.3,2.6,4.7,4.1,7.2
		c1.5,2.5,3.1,4.7,4.8,6.8c1.7,2,3.5,3.7,5.4,5s3.8,1.9,5.8,1.9c2.4,0,4.5-0.5,6.2-1.4c1.7-0.9,3.1-2,4.1-3.1c1-1.1,1.6-2.1,1.9-3.1
		C697.7,333,697.5,332.6,696.9,332.6z"/>
	<path class="st0" d="M599.6,287.2c1.1-4,1.7-7.7,1.7-11.1c0-4.3-0.9-8-2.8-11c-1.8-3.1-4-5.6-6.5-7.5c-2.5-2-4.9-3.4-7.4-4.4
		c-2.5-0.9-4.3-1.4-5.5-1.4c-1.2,0-2.2,0.2-2.9,0.6c-0.8,0.4-1.3,0.8-1.5,1.3c-0.2,0.5-0.3,0.9-0.1,1.3c0.2,0.4,0.7,0.6,1.6,0.6
		c0.8,0,1.5,0,2-0.1c0.5-0.1,1-0.2,1.3-0.3c0.3-0.1,0.7-0.3,0.9-0.5c1.8,0.5,3.4,1.4,4.9,2.6c1.2,1,2.4,2.5,3.4,4.5
		c1,1.9,1.6,4.5,1.6,7.8c0,2.2-0.3,5-0.9,8.7c-0.6,3.6-1.5,7.6-2.5,11.8c-1.1,4.2-2.4,8.5-3.9,12.9c-1.5,4.4-3.1,8.3-4.9,11.9
		c-1.8,3.5-3.7,6.4-5.7,8.6c-2,2.2-4.1,3.3-6.1,3.3c-1.5,0-2.6-0.7-3.2-2.1c-0.6-1.4-1-3-1.1-4.7c-0.2-2-0.2-4.3,0.1-7
		c1.7-1.2,3.2-2.5,4.6-3.9c1.2-1.2,2.3-2.6,3.3-4.3c1-1.7,1.7-3.4,2-5.3c0.4-3.1-0.7-4.7-3.4-4.7c-1.9,0-3.5,0.8-4.8,2.3
		c-1.3,1.5-2.4,3.3-3.3,5.2c-0.9,2-1.5,3.9-2,5.8c-0.5,1.9-0.7,3.2-0.9,3.9c-1.3,1.6-2.8,3.3-4.4,5c-1.6,1.7-3.2,3.3-4.7,4.7
		c-1.5,1.4-2.8,2.6-4.1,3.5c-1.2,0.9-2.1,1.3-2.6,1.3c-1.2,0-1.7-0.7-1.5-2.1c0.3-1.4,1-3.2,2.2-5.5c1.2-2.2,2.6-4.7,4.3-7.5
		c1.7-2.8,3.3-5.6,4.9-8.4c1.6-2.8,2.9-5.4,4.1-7.9c1.1-2.5,1.7-4.5,1.7-6.1c0-2.4-0.6-4.5-1.7-6.1c-1.1-1.6-2.3-2.9-3.7-3.7
		c-1.4-0.8-2.6-1.3-3.7-1.4c-1.1-0.1-1.7,0.2-1.7,0.8c0,2-0.4,4.2-1.1,6.7c-0.2,0.5-0.3,1.1-0.5,1.6c-0.5-0.5-1-1-1.7-1.5
		c-1.2-0.8-2.6-1.5-4.2-2.1c-1.7-0.6-3.6-0.8-5.9-0.8h-2.1c0.8-1.5,1.4-2.9,1.9-4c0.4-1.2,0.6-2,0.6-2.7c0-1.8-0.4-3.3-1.1-4.6
		c-0.7-1.2-1.5-2.2-2.4-2.8c-0.9-0.6-1.7-1-2.4-1c-0.7,0-1.1,0.2-1.1,0.7c0,1.2-0.6,3.1-1.7,5.7c-1.1,2.6-2.6,5.6-4.4,9
		c-1.2,0.1-2.8,0.3-4.6,0.4c-1.8,0.1-3.9,0.2-6,0.2c-1,0-2-0.1-2.9-0.2c-0.1-0.2-0.2-0.4-0.4-0.6c0.4-0.2,0.8-0.5,1.1-0.8
		c1.2-0.9,1.9-2.1,2.2-3.4c0.2-1.3,0-2.6-0.7-4c-0.6-1.4-1.6-2.7-3-4c-1.4-1.3-3-2.4-4.9-3.2c-1.9-0.8-3.9-1.3-6-1.5
		c-2.7-0.3-5.3-0.3-7.6,0.1c-2.4,0.4-4.4,0.9-6.2,1.5c-1.8,0.6-3.2,1.3-4.2,1.9c-1.1,0.6-1.7,1.1-1.8,1.3c-1.2-0.5-2.7-1.2-4.8-2.1
		c-2-0.9-4.3-1.8-6.8-2.8c-2.5-1-5.3-2-8.1-3c-2.9-1-5.8-1.9-8.6-2.7c-2.9-0.8-5.7-1.5-8.3-2s-5.1-0.8-7.2-0.8
		c-3.9,0-7.4,0.6-10.5,1.7c-3,1.1-5.6,2.6-7.7,4.5c-2.1,1.9-3.7,4-4.9,6.4c-1.1,2.4-1.8,4.8-1.9,7.2c-0.1,2.4,0.4,4.8,1.5,7.2
		c1.2,2.3,2.8,4.4,5,6.2c2,1.6,4.1,2.8,6.4,3.7c2.3,0.9,4.7,1.3,7,1.3c2.9,0,5.6-0.4,8.1-1.3c2.5-0.8,4.6-1.9,6.4-3.2
		c1.8-1.3,3.2-2.8,4.3-4.5c1.1-1.7,1.6-3.4,1.7-5.1c0.1-1.9-0.7-3.5-2.4-4.9c-1.1-0.8-2.3-1.5-3.8-2c-1.5-0.5-3-0.8-4.5-0.8
		c-1.2,0-2.3,0.2-3.4,0.6c-1.1,0.4-1.7,1.1-2,2.1h0.1c0.4,0,1.1,0.1,2.1,0.3c1,0.2,1.9,0.6,2.8,1.3c1.2,1,1.7,2.4,1.5,4.2
		c0,2.2-0.9,4-2.7,5.3c-1.7,1.3-4,1.9-6.9,1.9c-1.9,0-3.9-0.4-6.1-1.3c-2.2-0.9-4.1-1.9-5.7-3.2c-1.1-0.9-2.2-2.1-3.2-3.6
		c-1-1.5-1.5-3.3-1.4-5.4c0.2-3.9,1.9-6.9,5-9c3.1-2.1,7.3-3.2,12.7-3.2c2.4,0,5.1,0.3,8,1c3,0.6,6,1.5,9,2.5c3,1,6,2.1,9,3.3
		c2.9,1.2,5.5,2.3,7.8,3.3c2.3,1,4.2,1.9,5.7,2.6c1.5,0.7,2.3,1.2,2.5,1.3c-0.4,0.7-0.9,1.6-1.4,2.6c-0.6,1-1.2,2.1-1.8,3.3
		c-0.6,1.2-1.3,2.3-2.1,3.5c-0.7,1.2-1.4,2.2-2.2,3.2c-0.4,0.5-0.7,0.9-1,1.2c-0.3,0.3-0.6,0.7-1,1.2l-0.1,0.1l-0.1,0.1
		c-0.5,0-1,0.2-1.4,0.4c-0.8,0.3-1.5,0.7-2.2,1.2c-0.7,0.5-1.3,1-1.8,1.6c-0.5,0.6-0.8,1.2-1,1.8c-0.2,0.6-0.2,1.2,0,1.8
		c0.1,0.2,0.2,0.4,0.3,0.6c0.1,0.1,0.1,0.3,0.2,0.4c0,0.1,0.1,0.1,0.1,0.1l0.6,0.1l-0.2,0.4c-0.7,0.9-1.2,1.8-1.7,2.7l-5.9,9.8
		c-0.9,1.6-1.7,3-2.2,4.2c-0.6,1.2-1,2.2-1.4,3.1c-0.3,0.9-0.6,1.8-0.7,2.6c-0.1,0.8-0.2,1.6-0.1,2.5c0.1,1.6,0.4,3,1,4.1
		c0.6,1.1,1.2,2,1.9,2.6c0.7,0.6,1.3,0.9,1.8,1c0.5,0,0.8-0.2,0.7-0.8c0-1,0.4-2.6,1.4-4.9c1-2.3,2.2-4.9,3.8-7.8s3.4-6.1,5.4-9.5
		c2-3.4,4-6.6,6-9.8l0.2-0.2l1.2,0.2c1.4,0.4,2.5,0.7,3.2,0.9c0.7,0.2,1.3,0.3,1.8,0.4c0.5,0.1,1,0.1,1.5,0.1c0.6,0,1.4,0,2.6,0
		c0.8,0,1.5,0,2.2-0.1c0.6-0.1,1.2-0.2,1.7-0.4c1.5-0.6,2.6-1.1,3.3-1.7c0.7-0.6,1.2-1,1.5-1.5c0.3-0.4,0.4-0.8,0.4-1.2
		c0-0.3-0.1-0.6-0.1-0.7c-0.2-0.3-0.5-0.4-0.9-0.4c-0.2,0-0.5,0-0.8,0.1c-0.1,0-0.3,0.1-0.4,0.1c-0.3,0.1-0.8,0.2-1.7,0.2
		c-1.2,0-2.3-0.1-3.4-0.3c-1.1-0.2-2.1-0.4-2.9-0.6c-0.9-0.2-1.6-0.4-2.1-0.6c-0.6-0.2-0.9-0.3-1-0.4l-1.9-0.5l0.2-0.4
		c0.5-0.9,1.1-1.9,1.8-3c0.7-1.1,1.4-2.3,2.1-3.5c0.7-1.2,1.4-2.3,2-3.4c0.6-1.1,1.2-2.1,1.6-2.9c0.3,0.1,0.7,0.3,1,0.5
		c0.3,0.2,0.7,0.4,1.1,0.5c1.7,0.7,3.6,1.3,5.7,1.9c2.1,0.5,4.2,0.9,6.2,1.2c1.2,0.1,2.3,0.2,3.5,0.2c-0.1,0.5-0.2,1-0.2,1.5
		c-0.1,1.3-0.1,2.5,0.2,3.5c0.3,1,0.6,1.9,1,2.6c0.4,0.7,0.9,1.3,1.4,1.6c0.5,0.4,1,0.5,1.4,0.5c0.3,0,0.5,0,0.6-0.1
		c0.1,0,0.3-0.2,0.5-0.4c0.2-0.2,0.4-0.6,0.7-1.2c0.3-0.5,0.7-1.3,1.3-2.2c0.6-1,1.1-1.7,1.7-2.3c0.4-0.4,0.7-0.8,1-1.1
		c1.3,0.3,2.8,0.4,4.5,0.4c1.4,0,2.8,0,4.2,0s2.6,0,3.9-0.1c-1.3,2.4-2.7,4.9-4.1,7.4s-2.8,5-4.1,7.4c-0.8,1.4-1.5,2.7-2.2,4
		c-0.2,0.1-0.5,0.3-0.7,0.6c-1.6,2.4-3.4,4.9-5.5,7.5c-2.1,2.5-4.1,4.9-6,6.9c-1.9,2.1-3.7,3.8-5.3,5.1c-1.6,1.3-2.6,2-3.1,2
		c-1.2,0-1.9-0.4-2-1.3c-0.1-0.9,0.2-2.1,0.8-3.5s1.5-3,2.6-4.8c1.1-1.8,2.2-3.5,3.3-5.2s2-3.3,2.8-4.9c0.8-1.5,1.3-2.7,1.4-3.7
		c0.1-1.4,0.1-2.6-0.2-3.7c-0.3-1.1-0.7-1.9-1.2-2.6c-0.5-0.7-1-1.2-1.6-1.6c-0.6-0.4-1.1-0.5-1.5-0.5c-0.4,0-0.7,0.1-0.9,0.3
		c-0.2,0.2-0.3,0.4-0.4,0.8c-0.1,0.3-0.2,0.7-0.2,1c0,0.4-0.1,0.7-0.3,1.1c-0.9,2.2-1.9,4.3-3.1,6.4c-1.2,2.1-2.4,4.2-3.6,6.2
		c-1.2,2-2.2,3.8-3,5.5c-0.9,1.7-1.3,3.2-1.4,4.5c-0.1,1-0.1,2,0.1,3.2c0.1,1.2,0.5,2.2,0.9,3.2c0.5,1,1.2,1.8,2,2.4
		c0.9,0.6,2,1,3.4,1c1.1,0,2.4-0.5,4-1.6c1.5-1.1,3.1-2.4,4.8-4c1.7-1.6,3.4-3.4,5-5.4c1.2-1.4,2.3-2.7,3.3-4
		c-0.6,1.2-1,2.4-1.4,3.4c-0.5,1.5-0.8,2.6-0.8,3.4c0,0.9,0.1,1.8,0.2,2.8c0.1,1,0.4,1.9,0.9,2.7c0.5,0.8,1.1,1.5,1.9,2.1
		c0.8,0.6,1.9,0.8,3.2,0.8c1.1,0,2.4-0.5,4-1.6c1.6-1.1,3.2-2.4,4.9-4c1.7-1.6,3.4-3.4,5.1-5.4c1.7-1.9,3.3-3.8,4.8-5.5
		c1.4-1.8,2.7-3.3,3.6-4.6c1-1.3,1.6-2.2,1.8-2.6c0.4-0.6,0.6-1.1,0.5-1.4c0-0.4-0.2-0.6-0.4-0.8c-0.2-0.1-0.5-0.2-0.9,0
		c-0.4,0.1-0.7,0.4-0.9,0.8c-1.6,2.4-3.4,4.9-5.6,7.4c-2.1,2.5-4.2,4.8-6.2,6.9c-2,2.1-3.8,3.8-5.4,5.1c-1.6,1.3-2.7,2-3.2,2
		c-0.9,0-1.2-0.7-0.9-2c0.3-1.3,0.9-3.1,1.9-5.3c1-2.2,2.4-4.7,4-7.6c1.6-2.9,3.4-5.8,5.2-8.9s3.6-6.2,5.5-9.3c1.8-3.1,3.5-6,5-8.7
		c0.7,0,1.5-0.1,2.2-0.1c0.7,0,1.5,0,2.3,0c2,0,3.8,0.2,5.3,0.7c1.5,0.5,2.8,1,3.9,1.7c0.5,0.3,1,0.6,1.4,1c-0.3,0.8-0.6,1.6-1,2.4
		c-1.1,2.6-2.4,5.3-3.6,7.9c-1.3,2.6-2.5,5.2-3.6,7.5c-1.1,2.4-2.1,4.6-2.8,6.6s-1.1,3.6-1.1,4.8c0,1.9,0.3,3.6,0.8,5.1
		c0.5,1.4,1.2,2.6,2,3.5c0.8,0.9,1.8,1.6,2.8,2c1,0.4,2.1,0.6,3.1,0.6c1.1,0,2.4-0.4,3.9-1.2c1.5-0.8,2.9-1.8,4.4-3.1
		c1.5-1.3,3-2.7,4.5-4.3c1.5-1.6,2.8-3.1,4-4.5c0.1,1.6,0.3,3.2,0.6,4.7c0.3,1.6,0.9,3,1.8,4.2c0.8,1.2,1.9,2.3,3.3,3
		c1.4,0.8,3.1,1.1,5.2,1.1c1.8,0,3.9-0.9,6.2-2.6c2.4-1.7,4.8-4.1,7.2-7c2.5-2.9,4.9-6.3,7.3-10c2.4-3.8,4.5-7.7,6.3-11.8
		C597,295.2,598.5,291.2,599.6,287.2z M564.2,302.8c0.6-1.2,1.2-2.4,1.8-3.5c0.7-1.1,1.5-1.6,2.4-1.6c0.9,0,1.2,0.5,0.8,1.6
		c-0.3,1-1,2.2-1.8,3.5c-0.9,1.3-1.8,2.4-2.8,3.5c-1,1-1.7,1.6-2.1,1.6C563.1,305.9,563.6,304.2,564.2,302.8z M505.8,276.3
		c-0.6,0.3-1.3,0.6-2.2,0.8c-0.9,0.2-1.8,0.4-2.9,0.5c-1.1,0.1-2.2,0.1-3.3,0.1c-1.4,0-2.7-0.1-3.9-0.4c-1.2-0.3-2.4-0.6-3.5-1
		c-1.2-0.4-2.3-0.8-3.3-1.3s-2.1-1-3.2-1.4l-0.3-0.1l0.1-0.3c1.5-1.1,2.9-1.9,4.2-2.5c1.2-0.6,2.7-1.1,4.4-1.5
		c1.7-0.4,3.4-0.5,5.2-0.3c0.8,0,1.7,0.2,2.8,0.4c1,0.2,2,0.6,2.8,0.9c1.7,0.7,2.9,1.5,3.7,2.4c0.8,0.9,1,1.7,0.6,2.6
		C506.7,275.6,506.4,276,505.8,276.3z"/>
</g>
<g>
	<path class="st1" d="M661.8,459.5c-0.4,0.7-1.1,1.4-2.2,2.1c-1.1,0.7-2.7,1-4.8,1c-1.1,0-2.2-0.2-3.5-0.7c-1.3-0.5-2.5-1.3-3.6-2.4
		c-1.1-1.2-2-2.7-2.8-4.8c-0.8-2-1.2-4.6-1.2-7.7s0.5-6.2,1.5-9.3c1-3.1,2.3-6,3.7-8.6s2.9-5,4.3-7c1.5-2,2.6-3.5,3.4-4.5
		c0.8-0.9,1.1-1.8,1-2.8c-0.2-0.9-0.5-1.8-1.1-2.6c-0.6-0.8-1.2-1.5-1.9-2.2c-0.7-0.6-1.2-1.1-1.5-1.3c-0.6-0.5-1.2-0.6-1.7-0.3
		c-0.5,0.3-1,0.6-1.4,0.9c-0.4,0.2-1.2,0.7-2.4,1.3c-1.2,0.6-2.4,1.3-3.7,1.9c-1.5,0.8-3.2,1.7-5,2.6c1.8-2.6,3.5-5.1,5-7.5
		c0.6-1,1.2-2.1,1.8-3.1c0.6-1.1,1.1-2.1,1.6-3.2c0.5-1.1,0.9-2.1,1.2-3s0.4-1.8,0.4-2.5c0-1.5-0.5-2.6-1.4-3.5
		c-1-0.8-2.1-1.2-3.5-1.2c-1.2,0-2.7,0.5-4.2,1.4c-1.6,1-3,2.3-4.4,4c-1.4,1.7-2.6,3.7-3.5,6.1c-0.9,2.4-1.4,4.9-1.4,7.8
		c0,2,0.2,3.6,0.6,4.8c0.4,1.2,0.9,2.1,1.4,2.8c0.6,0.6,1.2,1.1,1.8,1.3c0.1,0,0.1,0,0.2,0c-1.4,2.1-2.6,4-3.8,5.7
		c-1.2,1.8-2.3,3.2-3.3,4.5c-1,1.2-1.9,2.2-2.8,2.8s-1.7,1-2.6,1c-0.2,0-0.4-0.1-0.8-0.2c-0.3-0.1-0.5-0.2-0.6-0.3
		c1.2-1.5,2-2.9,2.7-4c0.6-1.1,0.9-2,0.9-2.7c0-1.5-0.4-2.5-1.1-3c-0.7-0.5-1.6-0.6-2.4-0.3c-0.9,0.3-1.7,1-2.4,2s-1.1,2.2-1.1,3.7
		c0,0.7,0,1.3,0.1,1.8c0,0.5,0.1,1,0.2,1.4c0.1,0.5,0.2,0.9,0.4,1.2c-1.5,1.6-3,3-4.5,4.2c-1.2,1.1-2.6,2.1-4,3
		c-1.4,0.9-2.6,1.3-3.7,1.3c-1.1,0-1.6-0.6-1.7-1.9c-0.1-1.3,0.2-2.9,0.9-4.8c0.7-1.9,1.6-3.9,2.9-6.2c1.3-2.2,2.7-4.3,4.4-6.2
		c1.7-1.9,3.5-3.5,5.5-4.8c2-1.3,3.9-1.9,5.9-1.9c1.6,0,2.7-0.2,3.1-0.6c0.4-0.4,0.6-0.7,0.4-0.9c-0.9-1.5-2.1-2.9-3.5-4
		c-1.4-1.1-3.2-1.7-5.2-1.7c-1.3,0-2.7,0.4-4.3,1.1c-1.6,0.7-3.2,1.7-4.8,3c-1.6,1.3-3.2,2.8-4.7,4.5c-1.5,1.7-2.9,3.6-4,5.5
		c-1.2,2-2.1,4-2.8,6.2c-0.7,2.2-1,4.3-1,6.5c0,1.9,0.3,3.5,0.8,4.6c0.5,1.2,1.2,2.1,2,2.7s1.6,1.1,2.5,1.3c0.9,0.2,1.7,0.4,2.4,0.4
		h0.7c0,0,0.2-0.1,0.4-0.1c0.1,0,0.2,0,0.2-0.1c2-0.3,4-1.1,6-2.5c2-1.4,3.9-3,5.6-4.8c0.1-0.2,0.3-0.4,0.4-0.5
		c0.1-0.1,0.2-0.3,0.3-0.4c0.1-0.1,0.2-0.2,0.3-0.3c0.2-0.2,0.5-0.6,0.8-0.9c0.3,0.2,0.7,0.5,1.1,0.6c0.5,0.2,0.9,0.3,1.5,0.3
		c1,0,2-0.3,3.1-1c1.1-0.6,2.1-1.5,3.1-2.5c1-1,1.9-2.1,2.8-3.3c0.9-1.2,1.7-2.4,2.5-3.5c0.7-1.1,1.4-2.1,1.9-3
		c0.5-0.9,0.9-1.5,1.1-1.9c0.3-0.4,0.4-0.7,0.5-1c1.8-0.1,3.4-0.3,4.9-0.7c1.7-0.5,3.1-1,4.2-1.4c-0.9,1.3-1.9,2.9-3,4.9
		c-1.1,2-2.2,4.1-3.2,6.5c-1,2.4-1.9,4.8-2.6,7.4c-0.7,2.6-1,5.1-1,7.7c0,3.5,0.6,6.6,1.7,9.2c1.1,2.6,2.6,4.8,4.3,6.5
		c1.8,1.7,3.7,3,5.8,3.9c2.1,0.9,4.1,1.3,5.9,1.3s3.4-0.3,4.6-0.8c1.2-0.5,2.2-1.1,2.9-1.8c0.9-0.8,1.5-1.6,1.9-2.6
		c-0.1-0.2-0.2-0.4-0.4-0.6C662.5,458.8,662.1,458.9,661.8,459.5z M636.6,413.1c-0.2-0.3-0.3-0.7-0.5-1.2c-0.1-0.5-0.2-1-0.2-1.7
		c0-0.9,0.3-1.9,0.8-3.1s1.2-2.4,2-3.5c0.8-1.1,1.6-2,2.4-2.8c0.8-0.8,1.6-1.2,2.2-1.2c0.6,0,0.8,0.4,0.6,1.2
		c-0.2,0.8-0.6,1.9-1.3,3.2c-0.6,1.3-1.5,2.9-2.5,4.6s-2,3.6-3.1,5.5C637,413.8,636.8,413.5,636.6,413.1z"/>
	<path class="st1" d="M702.2,449.5c-0.6,0-1,0.2-1.4,0.6c-0.3,0.4-0.7,0.8-1,1.3c-0.3,0.5-0.7,0.9-1.2,1.3c-0.5,0.4-1.1,0.6-2,0.6
		c-1.8,0-3.6-0.4-5.3-1.1c-1.7-0.7-3.3-1.7-4.9-2.9c-1.6-1.2-3.1-2.6-4.5-4.1c-1.4-1.5-2.7-3.1-3.9-4.8c-2.8-3.7-5.4-8-7.8-12.9
		c3.3,0,6.3-0.4,9-1.3c2.7-0.9,4.9-2,6.8-3.3c1.9-1.4,3.3-2.9,4.4-4.6c1-1.7,1.5-3.4,1.5-5.1c0-1.7-0.2-3.1-0.6-4.2
		c-0.4-1.1-0.9-1.9-1.3-2.3c-0.5-0.5-0.9-0.6-1.3-0.4c-0.4,0.2-0.6,0.7-0.6,1.5c0,1-0.4,2.1-1.2,3.3c-0.8,1.2-1.8,2.5-3.1,3.9
		c-1.3,1.3-2.7,2.6-4.2,3.9c-1.5,1.2-3,2.4-4.5,3.3c-1.5,1-2.8,1.8-4,2.4c-1.2,0.6-2.1,0.9-2.8,0.9c-0.3,0-0.7-0.1-1-0.2
		c-0.3-0.1-0.6-0.3-0.8-0.4c1.8-3,3.7-6,5.7-9.1c2-3.1,3.8-6.1,5.5-8.8c1.7-2.8,3.1-5.2,4.1-7.3c1.1-2.1,1.6-3.6,1.6-4.6
		c0-1.5-0.3-2.9-1-4c-0.7-1.2-1.4-2.1-2.3-2.7s-1.6-1-2.3-1.1c-0.7-0.1-1,0.2-1,0.8c0,1.5-0.6,3.5-1.8,6c-1.2,2.5-2.7,5.4-4.6,8.5
		c-1.8,3.1-3.8,6.4-6,9.9c-2.2,3.5-4.2,6.8-6,10.1c-1.8,3.3-3.3,6.3-4.6,9.2c-1.2,2.9-1.8,5.2-1.8,7.2c0,1.4,0.3,2.5,0.9,3.4
		c0.6,0.9,1.2,1.5,1.9,1.8c0.7,0.4,1.3,0.4,1.9,0.3c0.6-0.2,0.9-0.6,0.9-1.4c0-0.6,0.2-1.5,0.6-2.7c0.4-1.2,1-2.5,1.7-3.9
		c0.7-1.5,1.5-3,2.4-4.6c0.9-1.6,1.8-3.2,2.8-4.8c0.5,1,1.2,2.4,2,4.3c0.9,1.9,1.9,4,3.1,6.4c1.2,2.3,2.6,4.7,4.1,7.2
		c1.5,2.5,3.1,4.7,4.8,6.8c1.7,2,3.5,3.7,5.4,5s3.8,1.9,5.8,1.9c2.4,0,4.5-0.5,6.2-1.4c1.7-0.9,3.1-2,4.1-3.1c1-1.1,1.6-2.1,1.9-3.1
		C703,450,702.8,449.5,702.2,449.5z"/>
	<path class="st1" d="M604.9,404.1c1.1-4,1.7-7.7,1.7-11.1c0-4.3-0.9-8-2.8-11c-1.8-3.1-4-5.6-6.5-7.5c-2.5-2-4.9-3.4-7.4-4.4
		c-2.5-0.9-4.3-1.4-5.5-1.4c-1.2,0-2.2,0.2-2.9,0.6c-0.8,0.4-1.3,0.8-1.5,1.3c-0.2,0.5-0.3,0.9-0.1,1.3c0.2,0.4,0.7,0.6,1.6,0.6
		c0.8,0,1.5,0,2-0.1c0.5-0.1,1-0.2,1.3-0.3c0.3-0.1,0.7-0.3,0.9-0.5c1.8,0.5,3.4,1.4,4.9,2.6c1.2,1,2.4,2.5,3.4,4.5
		c1,1.9,1.6,4.5,1.6,7.8c0,2.2-0.3,5-0.9,8.7c-0.6,3.6-1.5,7.6-2.5,11.8c-1.1,4.2-2.4,8.5-3.9,12.9c-1.5,4.4-3.1,8.3-4.9,11.9
		c-1.8,3.5-3.7,6.4-5.7,8.6c-2,2.2-4.1,3.3-6.1,3.3c-1.5,0-2.6-0.7-3.2-2.1c-0.6-1.4-1-3-1.1-4.7c-0.2-2-0.2-4.3,0.1-7
		c1.7-1.2,3.2-2.5,4.6-3.9c1.2-1.2,2.3-2.6,3.3-4.3c1-1.7,1.7-3.4,2-5.3c0.4-3.1-0.7-4.7-3.4-4.7c-1.9,0-3.5,0.8-4.8,2.3
		c-1.3,1.5-2.4,3.3-3.3,5.2c-0.9,2-1.5,3.9-2,5.8c-0.5,1.9-0.7,3.2-0.9,3.9c-1.3,1.6-2.8,3.3-4.4,5c-1.6,1.7-3.2,3.3-4.7,4.7
		c-1.5,1.4-2.8,2.6-4.1,3.5c-1.2,0.9-2.1,1.3-2.6,1.3c-1.2,0-1.7-0.7-1.5-2.1c0.3-1.4,1-3.2,2.2-5.5c1.2-2.2,2.6-4.7,4.3-7.5
		c1.7-2.8,3.3-5.6,4.9-8.4c1.6-2.8,2.9-5.4,4.1-7.9c1.1-2.5,1.7-4.5,1.7-6.1c0-2.4-0.6-4.5-1.7-6.1c-1.1-1.6-2.3-2.9-3.7-3.7
		c-1.4-0.8-2.6-1.3-3.7-1.4c-1.1-0.1-1.7,0.2-1.7,0.8c0,2-0.4,4.2-1.1,6.7c-0.2,0.5-0.3,1.1-0.5,1.6c-0.5-0.5-1-1-1.7-1.5
		c-1.2-0.8-2.6-1.5-4.2-2.1c-1.7-0.6-3.6-0.8-5.9-0.8h-2.1c0.8-1.5,1.4-2.9,1.9-4c0.4-1.2,0.6-2,0.6-2.7c0-1.8-0.4-3.3-1.1-4.6
		c-0.7-1.2-1.5-2.2-2.4-2.8c-0.9-0.6-1.7-1-2.4-1c-0.7,0-1.1,0.2-1.1,0.7c0,1.2-0.6,3.1-1.7,5.7c-1.1,2.6-2.6,5.6-4.4,9
		c-1.2,0.1-2.8,0.3-4.6,0.4c-1.8,0.1-3.9,0.2-6,0.2c-1,0-2-0.1-2.9-0.2c-0.1-0.2-0.2-0.4-0.4-0.6c0.4-0.2,0.8-0.5,1.1-0.8
		c1.2-0.9,1.9-2.1,2.2-3.4c0.2-1.3,0-2.6-0.7-4c-0.6-1.4-1.6-2.7-3-4c-1.4-1.3-3-2.4-4.9-3.2c-1.9-0.8-3.9-1.3-6-1.5
		c-2.7-0.3-5.3-0.3-7.6,0.1c-2.4,0.4-4.4,0.9-6.2,1.5c-1.8,0.6-3.2,1.3-4.2,1.9c-1.1,0.6-1.7,1.1-1.8,1.3c-1.2-0.5-2.7-1.2-4.8-2.1
		c-2-0.9-4.3-1.8-6.8-2.8c-2.5-1-5.3-2-8.1-3c-2.9-1-5.8-1.9-8.6-2.7c-2.9-0.8-5.7-1.5-8.3-2s-5.1-0.8-7.2-0.8
		c-3.9,0-7.4,0.6-10.5,1.7c-3,1.1-5.6,2.6-7.7,4.5c-2.1,1.9-3.7,4-4.9,6.4c-1.1,2.4-1.8,4.8-1.9,7.2c-0.1,2.4,0.4,4.8,1.5,7.2
		c1.2,2.3,2.8,4.4,5,6.2c2,1.6,4.1,2.8,6.4,3.7c2.3,0.9,4.7,1.3,7,1.3c2.9,0,5.6-0.4,8.1-1.3c2.5-0.8,4.6-1.9,6.4-3.2
		c1.8-1.3,3.2-2.8,4.3-4.5c1.1-1.7,1.6-3.4,1.7-5.1c0.1-1.9-0.7-3.5-2.4-4.9c-1.1-0.8-2.3-1.5-3.8-2c-1.5-0.5-3-0.8-4.5-0.8
		c-1.2,0-2.3,0.2-3.4,0.6c-1.1,0.4-1.7,1.1-2,2.1h0.1c0.4,0,1.1,0.1,2.1,0.3c1,0.2,1.9,0.6,2.8,1.3c1.2,1,1.7,2.4,1.5,4.2
		c0,2.2-0.9,4-2.7,5.3c-1.7,1.3-4,1.9-6.9,1.9c-1.9,0-3.9-0.4-6.1-1.3c-2.2-0.9-4.1-1.9-5.7-3.2c-1.1-0.9-2.2-2.1-3.2-3.6
		c-1-1.5-1.5-3.3-1.4-5.4c0.2-3.9,1.9-6.9,5-9c3.1-2.1,7.3-3.2,12.7-3.2c2.4,0,5.1,0.3,8,1c3,0.6,6,1.5,9,2.5c3,1,6,2.1,9,3.3
		c2.9,1.2,5.5,2.3,7.8,3.3c2.3,1,4.2,1.9,5.7,2.6c1.5,0.7,2.3,1.2,2.5,1.3c-0.4,0.7-0.9,1.6-1.4,2.6c-0.6,1-1.2,2.1-1.8,3.3
		c-0.6,1.2-1.3,2.3-2.1,3.5c-0.7,1.2-1.4,2.2-2.2,3.2c-0.4,0.5-0.7,0.9-1,1.2c-0.3,0.3-0.6,0.7-1,1.2l-0.1,0.1l-0.1,0.1
		c-0.5,0-1,0.2-1.4,0.4c-0.8,0.3-1.5,0.7-2.2,1.2c-0.7,0.5-1.3,1-1.8,1.6c-0.5,0.6-0.8,1.2-1,1.8c-0.2,0.6-0.2,1.2,0,1.8
		c0.1,0.2,0.2,0.4,0.3,0.6c0.1,0.1,0.1,0.3,0.2,0.4c0,0.1,0.1,0.1,0.1,0.1l0.6,0.1l-0.2,0.4c-0.7,0.9-1.2,1.8-1.7,2.7l-5.9,9.8
		c-0.9,1.6-1.7,3-2.2,4.2c-0.6,1.2-1,2.2-1.4,3.1c-0.3,0.9-0.6,1.8-0.7,2.6c-0.1,0.8-0.2,1.6-0.1,2.5c0.1,1.6,0.4,3,1,4.1
		c0.6,1.1,1.2,2,1.9,2.6c0.7,0.6,1.3,0.9,1.8,1c0.5,0,0.8-0.2,0.7-0.8c0-1,0.4-2.6,1.4-4.9c1-2.3,2.2-4.9,3.8-7.8s3.4-6.1,5.4-9.5
		c2-3.4,4-6.6,6-9.8l0.2-0.2l1.2,0.2c1.4,0.4,2.5,0.7,3.2,0.9c0.7,0.2,1.3,0.3,1.8,0.4c0.5,0.1,1,0.1,1.5,0.1c0.6,0,1.4,0,2.6,0
		c0.8,0,1.5,0,2.2-0.1c0.6-0.1,1.2-0.2,1.7-0.4c1.5-0.6,2.6-1.1,3.3-1.7c0.7-0.6,1.2-1,1.5-1.5c0.3-0.4,0.4-0.8,0.4-1.2
		c0-0.3-0.1-0.6-0.1-0.7c-0.2-0.3-0.5-0.4-0.9-0.4c-0.2,0-0.5,0-0.8,0.1c-0.1,0-0.3,0.1-0.4,0.1c-0.3,0.1-0.8,0.2-1.7,0.2
		c-1.2,0-2.3-0.1-3.4-0.3c-1.1-0.2-2.1-0.4-2.9-0.6c-0.9-0.2-1.6-0.4-2.1-0.6c-0.6-0.2-0.9-0.3-1-0.4l-1.9-0.5l0.2-0.4
		c0.5-0.9,1.1-1.9,1.8-3c0.7-1.1,1.4-2.3,2.1-3.5c0.7-1.2,1.4-2.3,2-3.4c0.6-1.1,1.2-2.1,1.6-2.9c0.3,0.1,0.7,0.3,1,0.5
		c0.3,0.2,0.7,0.4,1.1,0.5c1.7,0.7,3.6,1.3,5.7,1.9c2.1,0.5,4.2,0.9,6.2,1.2c1.2,0.1,2.3,0.2,3.5,0.2c-0.1,0.5-0.2,1-0.2,1.5
		c-0.1,1.3-0.1,2.5,0.2,3.5c0.3,1,0.6,1.9,1,2.6c0.4,0.7,0.9,1.3,1.4,1.6c0.5,0.4,1,0.5,1.4,0.5c0.3,0,0.5,0,0.6-0.1
		c0.1,0,0.3-0.2,0.5-0.4c0.2-0.2,0.4-0.6,0.7-1.2c0.3-0.5,0.7-1.3,1.3-2.2c0.6-1,1.1-1.7,1.7-2.3c0.4-0.4,0.7-0.8,1-1.1
		c1.3,0.3,2.8,0.4,4.5,0.4c1.4,0,2.8,0,4.2,0s2.6,0,3.9-0.1c-1.3,2.4-2.7,4.9-4.1,7.4s-2.8,5-4.1,7.4c-0.8,1.4-1.5,2.7-2.2,4
		c-0.2,0.1-0.5,0.3-0.7,0.6c-1.6,2.4-3.4,4.9-5.5,7.5c-2.1,2.5-4.1,4.9-6,6.9c-1.9,2.1-3.7,3.8-5.3,5.1c-1.6,1.3-2.6,2-3.1,2
		c-1.2,0-1.9-0.4-2-1.3c-0.1-0.9,0.2-2.1,0.8-3.5s1.5-3,2.6-4.8c1.1-1.8,2.2-3.5,3.3-5.2s2-3.3,2.8-4.9c0.8-1.5,1.3-2.7,1.4-3.7
		c0.1-1.4,0.1-2.6-0.2-3.7c-0.3-1.1-0.7-1.9-1.2-2.6c-0.5-0.7-1-1.2-1.6-1.6c-0.6-0.4-1.1-0.5-1.5-0.5c-0.4,0-0.7,0.1-0.9,0.3
		c-0.2,0.2-0.3,0.4-0.4,0.8c-0.1,0.3-0.2,0.7-0.2,1c0,0.4-0.1,0.7-0.3,1.1c-0.9,2.2-1.9,4.3-3.1,6.4c-1.2,2.1-2.4,4.2-3.6,6.2
		c-1.2,2-2.2,3.8-3,5.5c-0.9,1.7-1.3,3.2-1.4,4.5c-0.1,1-0.1,2,0.1,3.2c0.1,1.2,0.5,2.2,0.9,3.2c0.5,1,1.2,1.8,2,2.4
		c0.9,0.6,2,1,3.4,1c1.1,0,2.4-0.5,4-1.6c1.5-1.1,3.1-2.4,4.8-4c1.7-1.6,3.4-3.4,5-5.4c1.2-1.4,2.3-2.7,3.3-4
		c-0.6,1.2-1,2.4-1.4,3.4c-0.5,1.5-0.8,2.6-0.8,3.4c0,0.9,0.1,1.8,0.2,2.8c0.1,1,0.4,1.9,0.9,2.7c0.5,0.8,1.1,1.5,1.9,2.1
		c0.8,0.6,1.9,0.8,3.2,0.8c1.1,0,2.4-0.5,4-1.6c1.6-1.1,3.2-2.4,4.9-4c1.7-1.6,3.4-3.4,5.1-5.4c1.7-1.9,3.3-3.8,4.8-5.5
		c1.4-1.8,2.7-3.3,3.6-4.6c1-1.3,1.6-2.2,1.8-2.6c0.4-0.6,0.6-1.1,0.5-1.4c0-0.4-0.2-0.6-0.4-0.8c-0.2-0.1-0.5-0.2-0.9,0
		c-0.4,0.1-0.7,0.4-0.9,0.8c-1.6,2.4-3.4,4.9-5.6,7.4c-2.1,2.5-4.2,4.8-6.2,6.9c-2,2.1-3.8,3.8-5.4,5.1c-1.6,1.3-2.7,2-3.2,2
		c-0.9,0-1.2-0.7-0.9-2c0.3-1.3,0.9-3.1,1.9-5.3c1-2.2,2.4-4.7,4-7.6c1.6-2.9,3.4-5.8,5.2-8.9s3.6-6.2,5.5-9.3c1.8-3.1,3.5-6,5-8.7
		c0.7,0,1.5-0.1,2.2-0.1c0.7,0,1.5,0,2.3,0c2,0,3.8,0.2,5.3,0.7c1.5,0.5,2.8,1,3.9,1.7c0.5,0.3,1,0.6,1.4,1c-0.3,0.8-0.6,1.6-1,2.4
		c-1.1,2.6-2.4,5.3-3.6,7.9c-1.3,2.6-2.5,5.2-3.6,7.5c-1.1,2.4-2.1,4.6-2.8,6.6s-1.1,3.6-1.1,4.8c0,1.9,0.3,3.6,0.8,5.1
		c0.5,1.4,1.2,2.6,2,3.5c0.8,0.9,1.8,1.6,2.8,2c1,0.4,2.1,0.6,3.1,0.6c1.1,0,2.4-0.4,3.9-1.2c1.5-0.8,2.9-1.8,4.4-3.1
		c1.5-1.3,3-2.7,4.5-4.3c1.5-1.6,2.8-3.1,4-4.5c0.1,1.6,0.3,3.2,0.6,4.7c0.3,1.6,0.9,3,1.8,4.2c0.8,1.2,1.9,2.3,3.3,3
		c1.4,0.8,3.1,1.1,5.2,1.1c1.8,0,3.9-0.9,6.2-2.6c2.4-1.7,4.8-4.1,7.2-7c2.5-2.9,4.9-6.3,7.3-10c2.4-3.8,4.5-7.7,6.3-11.8
		C602.3,412.2,603.8,408.1,604.9,404.1z M569.5,419.7c0.6-1.2,1.2-2.4,1.8-3.5c0.7-1.1,1.5-1.6,2.4-1.6c0.9,0,1.2,0.5,0.8,1.6
		c-0.3,1-1,2.2-1.8,3.5c-0.9,1.3-1.8,2.4-2.8,3.5c-1,1-1.7,1.6-2.1,1.6C568.3,422.8,568.9,421.2,569.5,419.7z M511,393.2
		c-0.6,0.3-1.3,0.6-2.2,0.8c-0.9,0.2-1.8,0.4-2.9,0.5c-1.1,0.1-2.2,0.1-3.3,0.1c-1.4,0-2.7-0.1-3.9-0.4c-1.2-0.3-2.4-0.6-3.5-1
		c-1.2-0.4-2.3-0.8-3.3-1.3s-2.1-1-3.2-1.4l-0.3-0.1l0.1-0.3c1.5-1.1,2.9-1.9,4.2-2.5c1.2-0.6,2.7-1.1,4.4-1.5
		c1.7-0.4,3.4-0.5,5.2-0.3c0.8,0,1.7,0.2,2.8,0.4c1,0.2,2,0.6,2.8,0.9c1.7,0.7,2.9,1.5,3.7,2.4c0.8,0.9,1,1.7,0.6,2.6
		C512,392.5,511.6,392.9,511,393.2z"/>
</g>
<g>
	<path d="M442.5,350.9h-2.1V338h7.3v1.8h-5.2v4h4.9v1.8h-4.9V350.9z"/>
	<path d="M472.2,350.9V338h2.1v12.9H472.2z"/>
	<path d="M503.6,350.9h-2.1v-11.1h-3.8V338h9.7v1.8h-3.8V350.9z"/>
	<path d="M537.1,350.9h-2.6l-6.4-10.3h-0.1l0,0.6c0.1,1.1,0.1,2.1,0.1,3v6.7h-1.9V338h2.6l6.3,10.2h0.1c0-0.1,0-0.6-0.1-1.5
		c0-0.9-0.1-1.5-0.1-2V338h1.9V350.9z"/>
	<path d="M564.6,350.9h-7.3V338h7.3v1.8h-5.2v3.5h4.9v1.8h-4.9v4.1h5.2V350.9z"/>
	<path d="M594.3,347.4c0,1.1-0.4,2-1.2,2.7c-0.8,0.7-2,1-3.4,1c-1.5,0-2.7-0.2-3.6-0.7v-2c0.6,0.3,1.2,0.5,1.9,0.7
		c0.7,0.2,1.3,0.2,1.9,0.2c0.8,0,1.5-0.2,1.9-0.5c0.4-0.3,0.6-0.7,0.6-1.3c0-0.5-0.2-0.9-0.5-1.2c-0.4-0.3-1.1-0.7-2.3-1.2
		c-1.2-0.5-2-1-2.5-1.6c-0.5-0.6-0.7-1.3-0.7-2.2c0-1.1,0.4-1.9,1.1-2.5c0.8-0.6,1.8-0.9,3.1-0.9c1.2,0,2.5,0.3,3.7,0.8l-0.7,1.7
		c-1.1-0.5-2.2-0.7-3.1-0.7c-0.7,0-1.2,0.1-1.6,0.4c-0.4,0.3-0.5,0.7-0.5,1.2c0,0.3,0.1,0.6,0.2,0.9c0.1,0.2,0.4,0.5,0.7,0.7
		c0.3,0.2,0.9,0.5,1.7,0.8c0.9,0.4,1.6,0.8,2.1,1.1s0.8,0.7,1,1.2C594.2,346.4,594.3,346.9,594.3,347.4z"/>
	<path d="M623.5,347.4c0,1.1-0.4,2-1.2,2.7c-0.8,0.7-2,1-3.4,1c-1.5,0-2.7-0.2-3.6-0.7v-2c0.6,0.3,1.2,0.5,1.9,0.7
		c0.7,0.2,1.3,0.2,1.9,0.2c0.8,0,1.5-0.2,1.9-0.5c0.4-0.3,0.6-0.7,0.6-1.3c0-0.5-0.2-0.9-0.5-1.2s-1.1-0.7-2.3-1.2
		c-1.2-0.5-2-1-2.5-1.6s-0.7-1.3-0.7-2.2c0-1.1,0.4-1.9,1.1-2.5s1.8-0.9,3.1-0.9c1.2,0,2.5,0.3,3.7,0.8l-0.7,1.7
		c-1.1-0.5-2.2-0.7-3.1-0.7c-0.7,0-1.2,0.1-1.6,0.4c-0.4,0.3-0.5,0.7-0.5,1.2c0,0.3,0.1,0.6,0.2,0.9c0.1,0.2,0.4,0.5,0.7,0.7
		c0.3,0.2,0.9,0.5,1.7,0.8c0.9,0.4,1.6,0.8,2.1,1.1s0.8,0.7,1,1.2C623.4,346.4,623.5,346.9,623.5,347.4z"/>
</g>
<g>
	<path d="M442.8,464.9h-2.1V452h7.3v1.8h-5.2v4h4.9v1.8h-4.9V464.9z"/>
	<path d="M472.5,464.9V452h2.1v12.9H472.5z"/>
	<path d="M503.8,464.9h-2.1v-11.1h-3.8V452h9.7v1.8h-3.8V464.9z"/>
	<path d="M537.3,464.9h-2.6l-6.4-10.3h-0.1l0,0.6c0.1,1.1,0.1,2.1,0.1,3v6.7h-1.9V452h2.6l6.3,10.2h0.1c0-0.1,0-0.6-0.1-1.5
		c0-0.9-0.1-1.5-0.1-2V452h1.9V464.9z"/>
	<path d="M564.8,464.9h-7.3V452h7.3v1.8h-5.2v3.5h4.9v1.8h-4.9v4.1h5.2V464.9z"/>
	<path d="M594.5,461.4c0,1.1-0.4,2-1.2,2.7c-0.8,0.7-2,1-3.4,1c-1.5,0-2.7-0.2-3.6-0.7v-2c0.6,0.3,1.2,0.5,1.9,0.7
		c0.7,0.2,1.3,0.2,1.9,0.2c0.8,0,1.5-0.2,1.9-0.5c0.4-0.3,0.6-0.7,0.6-1.3c0-0.5-0.2-0.9-0.5-1.2c-0.4-0.3-1.1-0.7-2.3-1.2
		c-1.2-0.5-2-1-2.5-1.6s-0.7-1.3-0.7-2.2c0-1.1,0.4-1.9,1.1-2.5c0.8-0.6,1.8-0.9,3.1-0.9c1.2,0,2.5,0.3,3.7,0.8l-0.7,1.7
		c-1.1-0.5-2.2-0.7-3.1-0.7c-0.7,0-1.2,0.1-1.6,0.4c-0.4,0.3-0.5,0.7-0.5,1.2c0,0.3,0.1,0.6,0.2,0.9c0.1,0.2,0.4,0.5,0.7,0.7
		c0.3,0.2,0.9,0.5,1.7,0.8c0.9,0.4,1.6,0.8,2.1,1.1c0.4,0.3,0.8,0.7,1,1.2C594.4,460.3,594.5,460.8,594.5,461.4z"/>
	<path d="M623.7,461.4c0,1.1-0.4,2-1.2,2.7c-0.8,0.7-2,1-3.4,1c-1.5,0-2.7-0.2-3.6-0.7v-2c0.6,0.3,1.2,0.5,1.9,0.7
		c0.7,0.2,1.3,0.2,1.9,0.2c0.8,0,1.5-0.2,1.9-0.5c0.4-0.3,0.6-0.7,0.6-1.3c0-0.5-0.2-0.9-0.5-1.2c-0.4-0.3-1.1-0.7-2.3-1.2
		c-1.2-0.5-2-1-2.5-1.6c-0.5-0.6-0.7-1.3-0.7-2.2c0-1.1,0.4-1.9,1.1-2.5c0.8-0.6,1.8-0.9,3.1-0.9c1.2,0,2.5,0.3,3.7,0.8l-0.7,1.7
		c-1.1-0.5-2.2-0.7-3.1-0.7c-0.7,0-1.2,0.1-1.6,0.4c-0.4,0.3-0.5,0.7-0.5,1.2c0,0.3,0.1,0.6,0.2,0.9c0.1,0.2,0.4,0.5,0.7,0.7
		c0.3,0.2,0.9,0.5,1.7,0.8c0.9,0.4,1.6,0.8,2.1,1.1c0.4,0.3,0.8,0.7,1,1.2C623.6,460.3,623.7,460.8,623.7,461.4z"/>
</g>
</svg>
